<svg width="280" height="50" viewBox="0 0 280 50" fill="none" xmlns="http://www.w3.org/2000/svg">
<g clip-path="url(#clip0_30_167)">
<path d="M41.7363 33.4051H40.6134L40.4334 33.5851L36.6875 32.5993L36.5847 32.7022L40.262 33.7565L39.7648 34.2537L36.2846 33.0022L36.1904 33.0965L39.6105 34.408L39.1562 34.8623L35.9161 33.3708L35.8218 33.4651L39.0019 35.0166L38.5733 35.4452L35.556 33.7308L35.4703 33.8165L38.4276 35.5909L38.0162 36.0024L35.2132 34.0737L35.1274 34.1508L37.879 36.1395L37.4847 36.5338L34.896 34.3909L34.8189 34.468L37.3561 36.6624L36.9618 37.0567L34.5703 34.7166L34.4931 34.7937L36.8332 37.1853L36.4389 37.5796L34.2531 35.0337L34.176 35.1109L36.3104 37.7082L35.9161 38.1025L33.936 35.3509L33.8502 35.4366L35.7789 38.2396L35.3675 38.6511L33.6017 35.6852L33.5159 35.7709L35.2303 38.7882L34.8017 39.2168L33.2588 36.0281L33.1731 36.1138L34.656 39.3625L34.2017 39.8168L32.8988 36.3881L32.8045 36.4824L34.0474 39.9711L33.5502 40.4683L32.4959 36.791L32.393 36.8938L33.3788 40.6397L32.8302 41.1883L32.0587 37.2281L31.9387 37.3481L32.633 41.3855L32.0159 42.0027L31.5615 37.7253L31.4244 37.8625L31.793 42.2255L31.0901 42.9284L30.9872 37.9568H30.8415V43.1856L30.0186 42.3627L30.3443 37.9568H30.2072L29.8129 42.157L29.23 41.5741L29.8472 37.5967L29.7357 37.4853L29.05 41.3941L28.5185 40.8626L29.41 37.1596L29.3071 37.0567L28.3557 40.6997L27.8585 40.2026L28.9986 36.7481L28.8957 36.6538L27.6956 40.0483L27.2328 39.5854L28.6043 36.3624L28.51 36.2681L27.0785 39.4311L26.6413 38.9939L28.2357 35.9938L28.1414 35.9081L26.487 38.8482L26.067 38.4282L27.8756 35.6423L27.7899 35.5566L25.9298 38.2911L25.5184 37.8796L27.5413 35.2995L27.4556 35.2138L25.3812 37.7425L24.9784 37.3396L27.1985 34.9652L27.1127 34.8795L24.8412 37.2024L24.4383 36.7995L26.8642 34.6309L26.7784 34.5451L24.3012 36.6624L23.8983 36.2595L26.5213 34.2966L26.4356 34.2108L23.7526 36.1224L23.3411 35.7109L26.1784 33.9537L26.0927 33.868L23.204 35.5738L22.7754 35.1452L25.827 33.6022L25.7327 33.5079L22.6211 34.9995L22.1668 34.5451L25.4412 33.2251L25.3469 33.1308L22.0125 34.3909L21.5325 33.9108L25.0555 32.8393L24.9526 32.7365L21.3696 33.748L20.8467 33.2251L24.6269 32.4108L24.5155 32.2993L20.6581 33.0451L20.3324 32.7193L19.8524 33.1994L0.522827 36.9024C0.565686 37.1167 0.599974 37.331 0.651405 37.5453L19.5695 33.4822L19.2266 33.8251L22.724 37.331L20.3838 39.654L19.9467 39.2168L22.6125 37.2196L22.4497 37.0567L19.7324 39.0025L19.0809 38.3511L21.9611 36.5681L21.7982 36.4052L18.8666 38.1368L18.198 37.4682L21.2925 35.8995L21.121 35.7281L17.9666 37.2367L17.4523 36.7224H16.7751L20.581 35.188L20.3924 34.9995L1.9029 41.9598C1.98004 42.1655 2.05719 42.3798 2.13434 42.5856L16.0208 37.0053L13.6806 39.2682L2.91438 44.4199C3.00867 44.6171 3.10296 44.8228 3.19725 45.02L12.8235 40.1597V41.2312L15.7893 44.2056L15.6436 44.0599L12.4806 46.7686H9.8233L14.7093 43.117L14.3921 42.7999L8.83754 46.7686H5.61451V48.3544H13.5435L14.1007 48.123L16.9208 45.32L20.4353 48.8345L21.5582 47.7115L18.0523 44.2056L20.3924 41.8827L26.8213 48.3116H27.9442L31.3987 44.8571L41.1706 35.0852L43.3993 37.3139L33.0359 47.6258L34.1588 48.7487L44.5222 38.4368L52.8455 46.7601L50.8654 46.7858L50.8825 48.3716L54.7484 48.3201L55.297 46.9658L52.0997 43.7685L57.3286 46.8972C57.44 46.7086 57.5514 46.5115 57.6629 46.3229L50.6597 42.337L47.4709 39.1397L58.5972 44.5571C58.6915 44.3599 58.7944 44.1542 58.8886 43.9485L46.6566 38.3168L45.0794 36.7395L44.7022 36.3624L59.6601 42.1055C59.7373 41.8998 59.8144 41.6855 59.8916 41.4712L44.1536 35.8224L42.8164 34.4851L60.5002 39.5683C60.5602 39.354 60.6202 39.1397 60.6802 38.9254L42.4392 34.108L41.7278 33.3965L41.7363 33.4051ZM16.9208 43.0999L14.5121 40.6912L16.8865 38.3939L19.2609 40.7683L16.9208 43.0913V43.0999ZM27.3785 46.6401L21.5153 40.7769L23.8554 38.4539L29.71 44.3085L27.3785 46.6401Z" fill="#231815"/>
<path d="M43.7251 42.9712L39.7992 47.0171L40.3649 48.3629H48.2253L48.7997 47.0171L44.8737 42.9712H43.7337H43.7251ZM42.2422 46.7771L44.2909 44.6684L46.3395 46.7771H42.2422Z" fill="#231815"/>
<path d="M23.2986 31.039L30.2076 37.9565H31.3305L38.4108 30.8761V30.559L61.6406 29.0075C61.6235 28.7932 61.6063 28.5703 61.5892 28.3474L38.4108 30.3875V29.8904L61.3491 26.3588C61.3149 26.1445 61.2806 25.9216 61.2377 25.6987L38.3851 29.7189L37.9737 29.3075L60.8263 23.7358C60.7748 23.5215 60.7148 23.3072 60.6634 23.0929L37.8451 29.1789L37.4765 28.8103L60.0891 21.1814C60.0205 20.9756 59.9434 20.7613 59.8748 20.5556L37.3651 28.6989L37.0222 28.356L59.1376 18.6955C59.0519 18.4984 58.9576 18.2926 58.8633 18.0955L36.9108 28.2446L36.5936 27.9274L57.9633 16.304C57.8604 16.1068 57.749 15.9182 57.6375 15.7296L36.4822 27.8246L36.1822 27.5245L56.5918 14.0324C56.4718 13.8524 56.3432 13.6638 56.2232 13.4838L36.0793 27.4217L35.7878 27.1302L55.0317 11.8809C54.8945 11.7094 54.7574 11.538 54.6117 11.3666L35.685 27.0359L35.4021 26.7531L53.3173 9.87506C53.163 9.7122 53.0087 9.55791 52.8544 9.39504L35.325 26.6502L35.0421 26.3673L51.4144 8.02354C51.2515 7.87782 51.0801 7.7321 50.9172 7.58638L34.9392 26.273L34.6478 25.9816L49.3657 6.33488C49.1942 6.20631 49.0142 6.06916 48.8342 5.94058L34.5535 25.8787L34.2535 25.5787L47.1713 4.83481C46.9827 4.7148 46.7941 4.60337 46.6055 4.49193L34.1592 25.493L33.8506 25.1844L44.8569 3.51474C44.6597 3.41188 44.4626 3.31759 44.2568 3.21472L33.7392 25.0644L33.4049 24.7387L42.431 2.40897C42.2253 2.32325 42.011 2.2461 41.8053 2.16038L33.2934 24.6187L32.9334 24.2587L39.9195 1.50892C39.7052 1.44035 39.4909 1.38034 39.2766 1.32034L32.8134 24.1472L32.4191 23.7529L37.3394 0.831745C37.1251 0.788886 36.9022 0.737455 36.6879 0.694596L32.2905 23.6072L31.8534 23.17L34.7078 0.386008C34.4849 0.360293 34.2706 0.334577 34.0478 0.308862L31.6905 23.0243L31.5019 22.8357H31.1848L32.0677 0.16314C31.8448 0.16314 31.6219 0.145996 31.4076 0.145996L31.0047 22.8272H30.3961L29.1189 0.214571C28.9132 0.231715 28.7161 0.248858 28.5103 0.266002L30.2418 22.9643L29.8133 23.3929L26.6845 0.471727C26.4788 0.497443 26.2731 0.53173 26.0674 0.566018L29.6761 23.53L29.2904 23.9158L24.2158 0.908892C24.0101 0.951752 23.8044 1.00318 23.5987 1.04604L29.1618 24.0444L28.8018 24.4044L21.7386 1.54321C21.5328 1.60321 21.3271 1.67179 21.1214 1.73179L28.6989 24.5158L28.3646 24.8501L19.2613 2.38325C19.0556 2.4604 18.8498 2.54612 18.6441 2.63184L28.236 24.9615L27.9189 25.2787L16.8269 3.45474C16.6297 3.54903 16.424 3.65189 16.2269 3.75475L27.816 25.3901L27.516 25.6987L14.461 4.74052C14.2725 4.85195 14.0753 4.98053 13.8867 5.10053L27.4131 25.793L27.1217 26.0845L12.2066 6.25774C12.0266 6.39489 11.8381 6.53204 11.6666 6.66919L27.0274 26.1788L26.8645 26.3416L26.736 26.4616L10.0894 7.98068C9.91796 8.13498 9.75509 8.28927 9.58366 8.44356L26.6331 26.5645L26.3417 26.8474L8.13501 9.89221C7.98072 10.0551 7.82642 10.2265 7.67213 10.3979L26.2559 26.9502L25.9645 27.2417L6.37778 11.9752C6.24063 12.1552 6.10348 12.3352 5.96633 12.5152L25.8702 27.336L25.5788 27.6274L4.8177 14.1953C4.69769 14.3839 4.57769 14.5724 4.46625 14.7696L25.4759 27.7388L25.1673 28.0388L3.48049 16.5268C3.37763 16.724 3.27476 16.9211 3.18047 17.1269L25.0644 28.1417L24.7473 28.4589L2.36615 18.9441C2.28043 19.1498 2.20328 19.3555 2.12613 19.5527L24.653 28.5617L24.3101 28.9046L1.4661 21.4299C1.39753 21.6357 1.33752 21.85 1.27752 22.0557L24.1901 29.016L23.8215 29.3846L0.780352 23.9672C0.728921 24.1815 0.686062 24.3958 0.643202 24.6101L23.6844 29.5218L23.2986 29.9161V29.9332L0.308899 26.5388C0.283184 26.7531 0.248896 26.9674 0.223181 27.1817L23.2901 30.0961V30.5761L0.0517435 29.1275C0.0345998 29.3418 0.0260279 29.5646 0.0174561 29.7789L23.2986 30.739V31.039ZM36.7308 30.3104L34.2621 32.7791L28.536 26.9245L30.9362 24.5244L36.7222 30.3104H36.7308ZM27.4131 28.0474L33.1391 33.902L30.7733 36.2678L24.9873 30.4818L27.4131 28.056V28.0474Z" fill="#231815"/>
<path d="M37.0219 32.2562L61.1345 36.9793C61.1774 36.765 61.2202 36.5422 61.2545 36.3279L37.1419 32.1362L37.0219 32.2562Z" fill="#231815"/>
<path d="M61.7088 30.979L38.2476 31.039L38.0762 31.2104L61.7002 31.7162C61.7002 31.4933 61.7002 31.279 61.7002 31.0562V30.979H61.7088Z" fill="#231815"/>
<path d="M37.5105 31.7675L61.5289 34.3562C61.5546 34.1334 61.5717 33.9105 61.5974 33.6876L37.6476 31.6304L37.5105 31.7675Z" fill="#231815"/>
<path d="M19.6295 34.2192L1.10571 39.4566C1.16572 39.6624 1.22572 39.8767 1.28572 40.091L19.8267 34.425L19.6295 34.2278V34.2192Z" fill="#231815"/>
<path d="M13.1064 41.5225L4.1488 46.8027C4.26024 46.9999 4.37167 47.1885 4.49168 47.3856L13.4236 41.8482L13.0978 41.5225H13.1064Z" fill="#231815"/>
<path d="M23.4698 31.2104L0 31.7248C0 31.9391 0.00857187 32.1619 0.0171437 32.3762L23.6155 31.3647L23.4698 31.219V31.2104Z" fill="#231815"/>
<path d="M24.0355 31.7764L0.154297 34.3222C0.171441 34.5365 0.197156 34.7508 0.222872 34.9737L24.1555 31.9135L24.0269 31.7849L24.0355 31.7764Z" fill="#231815"/>
<path d="M78.8012 26.0417L85.8129 30.0104H79.8469L76.0067 27.8932L72.1237 30.1562L66.2177 30.1733L72.9209 26.0331H66.5091V23.7787H74.1123V22.5786H66.5091V20.3328H85.8815L84.7672 22.5786H77.9183V23.7787H85.8558L84.8443 26.0417H78.8097H78.8012ZM66.852 10.7752L70.4179 10.7666L82.0156 10.7752L85.1015 10.7666V17.3412L81.5527 19.4156H70.4264L66.8605 19.4328V19.4156H66.852V10.7837H66.8605L66.852 10.7752ZM70.4179 17.2984H81.5441V12.9696H70.4179V14.0753H81.287L80.2755 16.0726H70.4179V17.2984Z" fill="#231815"/>
<path d="M107.063 10.8438V27.3103L103.694 29.9419H102.665V27.4817L103.694 27.4646L103.711 26.5046V13.1239H88.1445V10.8438H107.063ZM102.091 17.4955H88.5045V15.2325H103.085L102.082 17.4955H102.091ZM102.494 19.0385V26.7531L99.1337 29.2647H88.5045V19.0385H102.494ZM91.8733 21.37V26.9503H99.1251L99.0994 21.37H91.8647H91.8733Z" fill="#231815"/>
<path d="M113.963 25.0987L115.472 27.7474H129.324L128.235 30.0361H113.586L112.926 28.9303L112.566 30.0447H109.566L111.108 24.9358L109.703 22.51H111.7L112.24 20.6756H110.046V18.4726L112.103 13.0295H110.251V10.4665H115.326V12.6352L113.166 18.1983H115.206V20.7099L113.946 25.0901L113.963 25.0987ZM120.572 23.6929V22.7329H116.509V20.7099H120.572V19.5956H116.217V17.5555H120.572V16.184H116.303V14.101H120.572V13.0724H116.414V11.0323H120.572V10.3208H123.795V11.0323H128.149V14.1096H129.092L128.381 16.2182L128.149 16.2011V17.5383L125.278 19.6127H123.795V20.7528H128.569L127.635 22.75H123.795V23.7101H129.195L128.312 25.7587H123.795V26.2902L120.572 27.696V25.7587H116.329V23.7101H120.572V23.6929ZM123.795 14.101H124.901V13.0724H123.795V14.101ZM123.795 17.5555H124.901V16.184H123.795V17.5555Z" fill="#231815"/>
<path d="M134.115 11.435C134.15 11.3493 134.21 11.2293 134.295 11.0664C134.373 10.9035 134.561 10.7407 134.861 10.5692C135.153 10.3978 135.461 10.3035 135.778 10.2949C136.087 10.2949 136.413 10.3892 136.738 10.5778C137.064 10.7664 137.278 10.9892 137.373 11.2464L137.45 11.435H140.776L139.987 13.638H131.432V11.435H134.115ZM139.927 14.8466L139.276 17.0238H131.998V14.8466H139.927ZM139.927 18.1896L139.121 20.3669H132.007V18.1896H139.936H139.927ZM139.893 21.6441V28.0901L137.338 30.2588H131.998V21.6441H139.893ZM134.853 28.0901H136.944V23.8128H134.853V28.0901ZM145.893 23.8042L147.076 22.3898H141.084V19.9897H151.028V22.5527L148.105 26.0757L151.851 29.8988L147.65 29.9159L146.185 28.3987L144.787 30.0788H140.596L143.947 26.11L140.896 22.947H145.062L145.893 23.8042ZM150.445 19.1154H146.853V13.0808H144.839V18.0696L141.53 19.4325V10.6635H150.136V16.6981H151.499L150.445 19.1154Z" fill="#231815"/>
<path d="M162.788 10.7837V27.516L160.234 30.0104H158.579V27.7217H159.677V22.4757L158.768 24.3015H157.757V29.1275L154.628 30.3275V10.7837H162.78H162.788ZM157.757 16.5783H159.677V13.1581H157.757V16.5783ZM157.757 22.0471H159.677V17.0412L158.734 18.7641H157.748V22.0471H157.757ZM166.157 25.8445L163.363 22.8529H167.46L168.146 23.5815L169.277 22.3043H163.945V19.9384H173.169V22.4586L170.254 25.8187L173.975 29.6761L169.843 29.6932L168.266 28.0817L166.791 29.7618H162.677L166.157 25.8359V25.8445ZM172.757 19.0898H169.226V13.1667H167.254V18.0698L164.005 19.407V10.7837H172.466V16.7069H173.803L172.766 19.0813L172.757 19.0898Z" fill="#231815"/>
<path d="M177.995 10.758H181.518L180.489 14.3496V29.1618L177.172 30.6104V17.8812H175.74L177.986 10.7494L177.995 10.758ZM184.098 10.7065H187.45L184.587 17.084H181.021L184.098 10.7065ZM183.138 20.3842H181.484V17.9583H194.119V27.6617L191.178 29.9932H189.13V27.5503H190.793V20.3928H186.387L185.29 29.9504H181.964L183.121 20.3928L183.138 20.3842ZM188.41 10.7151H191.736L194.684 17.084H191.238L188.418 10.7151H188.41Z" fill="#231815"/>
<path d="M198.344 19.6383L196.613 19.6297L199.605 14.118H196.964V11.855H200.839L201.696 10.2949H205.536L204.662 11.855H216.457L215.317 14.118H203.385L202.493 15.6952H215.78V27.1986L212.317 29.7874H206.256V27.5415H212.317V17.9925H201.825V19.7926H211.982L210.894 22.0127H201.825V23.8813H211.845L210.628 26.1443H201.825V28.9559L198.319 30.2588L198.344 19.6383Z" fill="#231815"/>
<path d="M221.866 27.7817V28.9217L218.737 30.4046V10.9036H226.066V17.1868L224.369 18.6269L226.066 19.7155V25.4672L223.674 27.7902H221.866V27.7817ZM221.866 17.4954H222.903V13.218H221.866V17.4954ZM221.866 19.6984V25.4672H222.903V19.707H221.866V19.6984ZM227.06 10.8008H237.218V18.3269L234.08 20.787H230.215V27.4988H232.469L231.457 29.7875H227.06V10.8179V10.8008ZM234.089 13.038H230.223V14.8981H233.815L232.872 17.084H230.215V18.644H234.08V13.038H234.089ZM235.812 26.0844L237.381 29.8389H234.089L230.763 21.4642H233.986L234.509 22.8443L235.255 21.4642H238.118L235.821 26.0844H235.812Z" fill="#231815"/>
<path d="M248.627 10.7835L243.39 20.5297H239.507L244.744 10.7835H248.618H248.627ZM254.816 27.2157L253.556 22.5698H256.805L258.836 30.0016H255.587L254.91 27.5072L253.822 29.693L240.715 29.6759V27.4729L247.753 18.1981H251.85L244.71 27.2329H254.825L254.816 27.2157ZM250.299 10.7749H254.044L259.282 20.5211H255.536L250.299 10.7749Z" fill="#231815"/>
<path d="M280 10.9639V27.1476L276.683 29.7277H275.671V27.3104L276.683 27.2933L276.7 26.3504V13.2011H261.408V10.9639H279.991H280ZM275.114 17.4956H261.768V15.2669H276.1L275.114 17.4956ZM275.508 19.0129V26.5904L272.208 29.0591H261.768V19.0129H275.517H275.508ZM265.076 21.3015V26.7875H272.208L272.191 21.3015H265.085H265.076Z" fill="#231815"/>
<path d="M67.2892 38.6079H69.1579V42.251H72.3809V38.6079H74.2324V48.2598H72.3809V44.0253H69.1579V48.2598H67.2892V38.6079Z" fill="#231815"/>
<path d="M81.1327 38.3594C82.4956 38.3594 83.6699 38.8565 84.6557 39.8423C85.6415 40.8281 86.1301 42.0367 86.1301 43.4596C86.1301 44.8826 85.65 46.0569 84.6728 47.0341C83.7042 48.0113 82.5299 48.4999 81.1412 48.4999C79.7526 48.4999 78.4925 48.0027 77.5325 46.9998C76.5724 45.9969 76.0924 44.8054 76.0924 43.4339C76.0924 42.5082 76.3153 41.6595 76.761 40.8881C77.2068 40.1166 77.8239 39.4994 78.604 39.0451C79.384 38.5908 80.224 38.3679 81.1241 38.3679M81.107 40.168C80.2155 40.168 79.4612 40.4766 78.8525 41.1024C78.2439 41.7195 77.9354 42.5082 77.9354 43.4682C77.9354 44.5311 78.3211 45.3797 79.084 45.9969C79.6755 46.4855 80.3612 46.7255 81.1327 46.7255C82.007 46.7255 82.7442 46.4084 83.3614 45.7826C83.97 45.1483 84.2785 44.3768 84.2785 43.4511C84.2785 42.5253 83.97 41.7538 83.3528 41.1195C82.7356 40.4852 81.9813 40.168 81.0984 40.168" fill="#231815"/>
<path d="M87.9302 38.6079H89.7731V44.8482C89.7731 45.3883 89.816 45.7654 89.9103 45.9883C90.0046 46.2112 90.1589 46.3912 90.3732 46.5197C90.5875 46.6569 90.8532 46.7169 91.1532 46.7169C91.4789 46.7169 91.7532 46.6398 91.9932 46.494C92.2247 46.3483 92.3875 46.1597 92.4818 45.9283C92.5761 45.6968 92.619 45.2597 92.619 44.6168V38.6079H94.4619V44.3596C94.4619 45.3283 94.4105 46.0054 94.2991 46.3826C94.1876 46.7598 93.9819 47.1198 93.6733 47.4712C93.3647 47.8227 93.0133 48.0798 92.6104 48.2513C92.2075 48.4227 91.7361 48.5084 91.2046 48.5084C90.5017 48.5084 89.8931 48.3456 89.3788 48.0284C88.8645 47.7027 88.4873 47.3084 88.2645 46.8198C88.0416 46.3397 87.9302 45.5168 87.9302 44.3682V38.6165V38.6079Z" fill="#231815"/>
<path d="M101.799 39.9195L100.437 41.1195C99.9565 40.4595 99.4765 40.1252 98.9793 40.1252C98.7393 40.1252 98.5422 40.1852 98.3879 40.3223C98.2336 40.4509 98.1564 40.5966 98.1564 40.7595C98.1564 40.9224 98.2079 41.0767 98.3193 41.2224C98.465 41.411 98.9193 41.831 99.6651 42.4653C100.368 43.0482 100.788 43.4168 100.942 43.5711C101.311 43.9482 101.577 44.3082 101.731 44.6511C101.885 44.994 101.962 45.3712 101.962 45.774C101.962 46.5626 101.688 47.2227 101.139 47.737C100.591 48.2513 99.8794 48.5085 98.9965 48.5085C98.3107 48.5085 97.7107 48.337 97.1964 48.0027C96.6821 47.6684 96.2535 47.137 95.8849 46.4169L97.4278 45.4826C97.8907 46.3398 98.4307 46.7598 99.0308 46.7598C99.3479 46.7598 99.6136 46.6655 99.8279 46.4855C100.042 46.3055 100.154 46.0912 100.154 45.8512C100.154 45.6369 100.077 45.414 99.9137 45.1912C99.7508 44.9769 99.3908 44.6426 98.8422 44.1882C97.7878 43.3311 97.1107 42.671 96.8021 42.1996C96.4935 41.7367 96.3392 41.2652 96.3392 40.8024C96.3392 40.1338 96.5964 39.5594 97.1021 39.0794C97.6078 38.5994 98.2422 38.3594 98.9879 38.3594C99.4679 38.3594 99.9308 38.4708 100.368 38.6937C100.805 38.9165 101.277 39.3194 101.782 39.9109" fill="#231815"/>
<path d="M103.865 38.6079H109.128V40.408H105.683V42.1481H109.128V43.9139H105.683V46.4512H109.128V48.2598H103.865V38.6079Z" fill="#231815"/>
<path d="M123.744 40.305L122.458 41.5307C121.583 40.605 120.598 40.1421 119.509 40.1421C118.583 40.1421 117.812 40.4593 117.177 41.085C116.543 41.7108 116.226 42.4908 116.226 43.4166C116.226 44.0594 116.363 44.6338 116.646 45.1309C116.929 45.6281 117.323 46.0224 117.829 46.3053C118.343 46.5881 118.909 46.7339 119.535 46.7339C120.066 46.7339 120.555 46.631 121.001 46.4339C121.438 46.2367 121.926 45.8767 122.458 45.3452L123.701 46.6396C122.989 47.3339 122.312 47.8139 121.678 48.0882C121.043 48.354 120.323 48.4911 119.509 48.4911C118.009 48.4911 116.783 48.0197 115.823 47.0682C114.872 46.1167 114.392 44.8995 114.392 43.408C114.392 42.4479 114.606 41.5908 115.043 40.845C115.48 40.0992 116.097 39.4992 116.912 39.0363C117.726 38.582 118.6 38.3506 119.535 38.3506C120.332 38.3506 121.095 38.522 121.832 38.8563C122.569 39.1906 123.203 39.6707 123.735 40.2878" fill="#231815"/>
<path d="M130.044 38.3594C131.407 38.3594 132.581 38.8565 133.567 39.8423C134.553 40.8281 135.041 42.0367 135.041 43.4596C135.041 44.8826 134.553 46.0569 133.584 47.0341C132.615 48.0113 131.441 48.4999 130.052 48.4999C128.664 48.4999 127.404 48.0027 126.444 46.9998C125.484 45.9969 125.004 44.8054 125.004 43.4339C125.004 42.5082 125.226 41.6595 125.672 40.8881C126.118 40.1166 126.735 39.4994 127.515 39.0451C128.295 38.5908 129.135 38.3679 130.035 38.3679M130.018 40.168C129.127 40.168 128.372 40.4766 127.764 41.1024C127.155 41.7195 126.855 42.5082 126.855 43.4682C126.855 44.5311 127.241 45.3797 128.004 45.9969C128.604 46.4855 129.281 46.7255 130.052 46.7255C130.927 46.7255 131.664 46.4084 132.281 45.7826C132.898 45.1483 133.198 44.3768 133.198 43.4511C133.198 42.5253 132.89 41.7538 132.272 41.1195C131.655 40.4852 130.901 40.168 130.018 40.168Z" fill="#231815"/>
<path d="M136.91 38.6079H138.676L142.807 44.9597V38.6079H144.642V48.2598H142.876L138.753 41.9252V48.2598H136.91V38.6079Z" fill="#231815"/>
<path d="M152.048 39.9195L150.685 41.1195C150.205 40.4595 149.725 40.1252 149.228 40.1252C148.988 40.1252 148.79 40.1852 148.636 40.3223C148.482 40.4509 148.405 40.5966 148.405 40.7595C148.405 40.9224 148.456 41.0767 148.568 41.2224C148.713 41.411 149.168 41.831 149.913 42.4653C150.616 43.0482 151.036 43.4168 151.191 43.5711C151.559 43.9482 151.825 44.3082 151.979 44.6511C152.133 44.994 152.211 45.3712 152.211 45.774C152.211 46.5626 151.936 47.2227 151.388 47.737C150.839 48.2513 150.128 48.5085 149.245 48.5085C148.559 48.5085 147.959 48.337 147.445 48.0027C146.93 47.6684 146.502 47.137 146.133 46.4169L147.676 45.4826C148.139 46.3398 148.679 46.7598 149.279 46.7598C149.596 46.7598 149.862 46.6655 150.076 46.4855C150.291 46.3055 150.402 46.0912 150.402 45.8512C150.402 45.6369 150.325 45.414 150.162 45.1912C149.999 44.9769 149.639 44.6426 149.09 44.1882C148.036 43.3311 147.359 42.671 147.05 42.1996C146.742 41.7367 146.587 41.2652 146.587 40.8024C146.587 40.1338 146.845 39.5594 147.35 39.0794C147.856 38.5994 148.49 38.3594 149.236 38.3594C149.716 38.3594 150.179 38.4708 150.616 38.6937C151.053 38.9165 151.525 39.3194 152.031 39.9109" fill="#231815"/>
<path d="M153.153 38.6079H158.485V40.4166H156.728V48.2598H154.868V40.4166H153.153V38.6079Z" fill="#231815"/>
<path d="M160.002 38.6079H161.948C163.011 38.6079 163.774 38.7022 164.228 38.8908C164.683 39.0794 165.043 39.3965 165.317 39.8423C165.591 40.288 165.728 40.8023 165.728 41.4109C165.728 42.0452 165.574 42.5767 165.274 43.0053C164.974 43.4339 164.511 43.751 163.903 43.9739L166.191 48.2684H164.186L162.017 44.1796H161.845V48.2684H160.011V38.6165L160.002 38.6079ZM161.837 42.3795H162.411C162.994 42.3795 163.397 42.3024 163.62 42.1481C163.843 41.9938 163.954 41.7452 163.954 41.3852C163.954 41.1709 163.903 40.9909 163.791 40.8366C163.68 40.6823 163.534 40.5709 163.354 40.5023C163.174 40.4337 162.831 40.3994 162.343 40.3994H161.837V42.3795Z" fill="#231815"/>
<path d="M167.743 38.6079H169.586V44.8482C169.586 45.3883 169.629 45.7654 169.723 45.9883C169.817 46.2112 169.972 46.3912 170.186 46.5197C170.4 46.6569 170.666 46.7169 170.966 46.7169C171.292 46.7169 171.566 46.6398 171.806 46.494C172.037 46.3483 172.2 46.1597 172.295 45.9283C172.38 45.6968 172.432 45.2597 172.432 44.6168V38.6079H174.275V44.3596C174.275 45.3283 174.223 46.0054 174.112 46.3826C174 46.7598 173.795 47.1198 173.486 47.4712C173.177 47.8227 172.826 48.0798 172.423 48.2513C172.02 48.4227 171.549 48.5084 171.017 48.5084C170.314 48.5084 169.706 48.3456 169.192 48.0284C168.677 47.7027 168.3 47.3084 168.077 46.8198C167.854 46.3397 167.743 45.5168 167.743 44.3682V38.6165V38.6079Z" fill="#231815"/>
<path d="M185.418 40.305L184.132 41.5307C183.258 40.605 182.272 40.1421 181.183 40.1421C180.258 40.1421 179.486 40.4593 178.852 41.085C178.218 41.7108 177.9 42.4908 177.9 43.4166C177.9 44.0594 178.038 44.6338 178.32 45.1309C178.603 45.6281 178.998 46.0224 179.503 46.3053C180.018 46.5881 180.583 46.7339 181.209 46.7339C181.741 46.7339 182.229 46.631 182.666 46.4339C183.104 46.2367 183.592 45.8767 184.124 45.3452L185.367 46.6396C184.655 47.3339 183.978 47.8139 183.344 48.0882C182.709 48.354 181.989 48.4911 181.175 48.4911C179.675 48.4911 178.449 48.0197 177.489 47.0682C176.529 46.1167 176.057 44.8995 176.057 43.408C176.057 42.4479 176.272 41.5908 176.709 40.845C177.146 40.0992 177.763 39.4992 178.578 39.0363C179.392 38.582 180.266 38.3506 181.201 38.3506C181.998 38.3506 182.761 38.522 183.498 38.8563C184.235 39.1906 184.869 39.6707 185.401 40.2878" fill="#231815"/>
<path d="M186.207 38.6079H191.547V40.4166H189.781V48.2598H187.921V40.4166H186.207V38.6079Z" fill="#231815"/>
<path d="M194.633 38.6079H192.807V48.2598H194.633V38.6079Z" fill="#231815"/>
<path d="M201.387 38.3594C202.75 38.3594 203.925 38.8565 204.91 39.8423C205.896 40.8281 206.385 42.0367 206.385 43.4596C206.385 44.8826 205.896 46.0569 204.928 47.0341C203.959 48.0113 202.785 48.4999 201.396 48.4999C200.007 48.4999 198.747 48.0027 197.787 46.9998C196.827 45.9969 196.347 44.8054 196.347 43.4339C196.347 42.5082 196.57 41.6595 197.016 40.8881C197.462 40.1166 198.079 39.4994 198.859 39.0451C199.639 38.5908 200.479 38.3679 201.379 38.3679M201.362 40.168C200.47 40.168 199.716 40.4766 199.107 41.1024C198.499 41.7281 198.199 42.5082 198.199 43.4682C198.199 44.5311 198.584 45.3797 199.347 45.9969C199.947 46.4855 200.625 46.7255 201.396 46.7255C202.27 46.7255 203.008 46.4084 203.625 45.7826C204.233 45.1483 204.542 44.3768 204.542 43.4511C204.542 42.5253 204.233 41.7538 203.616 41.1195C202.999 40.4852 202.245 40.168 201.362 40.168Z" fill="#231815"/>
<path d="M208.262 38.6079H210.019L214.151 44.9597V38.6079H215.985V48.2598H214.22L210.096 41.9252V48.2598H208.262V38.6079Z" fill="#231815"/>
<path d="M231.098 40.305L229.812 41.5307C228.937 40.605 227.952 40.1421 226.863 40.1421C225.937 40.1421 225.166 40.4593 224.531 41.085C223.897 41.7108 223.58 42.4908 223.58 43.4166C223.58 44.0594 223.717 44.6338 224 45.1309C224.283 45.6281 224.677 46.0224 225.183 46.3053C225.697 46.5881 226.263 46.7339 226.889 46.7339C227.42 46.7339 227.909 46.631 228.355 46.4339C228.792 46.2367 229.28 45.8767 229.812 45.3452L231.055 46.6396C230.343 47.3339 229.666 47.8139 229.032 48.0882C228.397 48.354 227.677 48.4911 226.863 48.4911C225.363 48.4911 224.137 48.0197 223.177 47.0682C222.226 46.1167 221.746 44.8995 221.746 43.408C221.746 42.4479 221.96 41.5908 222.397 40.845C222.834 40.0992 223.451 39.4992 224.266 39.0363C225.08 38.582 225.954 38.3506 226.889 38.3506C227.686 38.3506 228.449 38.522 229.186 38.8563C229.923 39.1906 230.557 39.6707 231.089 40.2878" fill="#231815"/>
<path d="M237.389 38.3594C238.752 38.3594 239.927 38.8565 240.912 39.8423C241.898 40.8281 242.387 42.0367 242.387 43.4596C242.387 44.8826 241.898 46.0569 240.929 47.0341C239.961 48.0113 238.786 48.4999 237.398 48.4999C236.009 48.4999 234.749 48.0027 233.789 46.9998C232.829 45.9969 232.349 44.8054 232.349 43.4339C232.349 42.5082 232.572 41.6595 233.018 40.8881C233.463 40.1166 234.081 39.4994 234.861 39.0451C235.641 38.5908 236.481 38.3679 237.381 38.3679M237.364 40.168C236.472 40.168 235.718 40.4766 235.109 41.1024C234.501 41.7195 234.201 42.5082 234.201 43.4682C234.201 44.5311 234.586 45.3797 235.349 45.9969C235.949 46.4855 236.626 46.7255 237.398 46.7255C238.272 46.7255 239.009 46.4084 239.627 45.7826C240.244 45.1483 240.544 44.3768 240.544 43.4511C240.544 42.5253 240.235 41.7538 239.618 41.1195C239.001 40.4852 238.246 40.168 237.364 40.168Z" fill="#231815"/>
<path d="M245.035 46.3911C245.318 46.3911 245.558 46.494 245.764 46.6911C245.961 46.8883 246.064 47.1283 246.064 47.4197C246.064 47.7112 245.961 47.9426 245.764 48.1483C245.558 48.3455 245.318 48.4484 245.035 48.4484C244.752 48.4484 244.504 48.3455 244.307 48.1483C244.11 47.9512 244.007 47.7026 244.007 47.4197C244.007 47.1369 244.11 46.8969 244.307 46.6911C244.512 46.494 244.752 46.3911 245.035 46.3911Z" fill="#231815"/>
<path d="M248.816 46.4429L250.093 47.0858L248.473 49.8545L247.581 49.4259L248.816 46.4429Z" fill="#231815"/>
<path d="M255.939 38.6079H257.773V46.5026H260.456V48.2598H255.939V38.6079Z" fill="#231815"/>
<path d="M261.031 38.6079H266.371V40.4166H264.605V48.2598H262.745V40.4166H261.031V38.6079Z" fill="#231815"/>
<path d="M267.768 38.6082H269.945C271.351 38.6082 272.388 38.7796 273.074 39.1311C273.751 39.4825 274.317 40.0397 274.754 40.8283C275.2 41.6083 275.414 42.5255 275.414 43.5713C275.414 44.317 275.285 44.9942 275.045 45.62C274.797 46.2457 274.463 46.76 274.025 47.1715C273.588 47.5829 273.117 47.8658 272.611 48.0201C272.105 48.1744 271.222 48.2515 269.979 48.2515H267.768V38.5996V38.6082ZM269.594 40.3826V46.4686H270.442C271.282 46.4686 271.891 46.3743 272.268 46.1771C272.645 45.98 272.954 45.6628 273.194 45.2085C273.434 44.7542 273.554 44.197 273.554 43.5284C273.554 42.5084 273.271 41.7112 272.697 41.1455C272.182 40.6397 271.351 40.3826 270.211 40.3826H269.585H269.594Z" fill="#231815"/>
<path d="M278.088 46.3911C278.371 46.3911 278.611 46.494 278.817 46.6911C279.014 46.8883 279.117 47.1283 279.117 47.4197C279.117 47.7112 279.014 47.9426 278.817 48.1483C278.611 48.3455 278.371 48.4484 278.088 48.4484C277.806 48.4484 277.566 48.3455 277.36 48.1483C277.163 47.9512 277.06 47.7026 277.06 47.4197C277.06 47.1369 277.163 46.8969 277.36 46.6911C277.557 46.4854 277.806 46.3911 278.088 46.3911Z" fill="#231815"/>
</g>
<defs>
<clipPath id="clip0_30_167">
<rect width="280" height="49.7083" fill="white" transform="translate(0 0.145996)"/>
</clipPath>
</defs>
</svg>
