<svg width="280" height="50" viewBox="0 0 280 50" fill="none" xmlns="http://www.w3.org/2000/svg">
<g clip-path="url(#clip0_32_3027)">
<path d="M41.736 33.4051H40.6131L40.4331 33.5851L36.6872 32.5993L36.5843 32.7022L40.2616 33.7565L39.7645 34.2537L36.2843 33.0022L36.19 33.0965L39.6102 34.408L39.1558 34.8623L35.9157 33.3708L35.8214 33.4651L39.0016 35.0166L38.573 35.4452L35.5557 33.7308L35.47 33.8165L38.4272 35.5909L38.0158 36.0024L35.2128 34.0737L35.1271 34.1508L37.8786 36.1395L37.4843 36.5338L34.8956 34.3909L34.8185 34.468L37.3558 36.6624L36.9615 37.0567L34.5699 34.7166L34.4928 34.7937L36.8329 37.1853L36.4386 37.5796L34.2527 35.0337L34.1756 35.1109L36.31 37.7082L35.9157 38.1025L33.9356 35.3509L33.8499 35.4366L35.7785 38.2396L35.3671 38.6511L33.6013 35.6852L33.5156 35.7709L35.2299 38.7882L34.8013 39.2168L33.2584 36.0281L33.1727 36.1138L34.6556 39.3625L34.2013 39.8168L32.8984 36.3881L32.8041 36.4824L34.047 39.9711L33.5499 40.4683L32.4955 36.791L32.3927 36.8938L33.3784 40.6397L32.8298 41.1883L32.0583 37.2281L31.9383 37.3481L32.6327 41.3855L32.0155 42.0027L31.5612 37.7253L31.424 37.8625L31.7926 42.2255L31.0897 42.9284L30.9869 37.9568H30.8411V43.1856L30.0182 42.3627L30.344 37.9568H30.2068L29.8125 42.157L29.2296 41.5741L29.8468 37.5967L29.7354 37.4853L29.0496 41.3941L28.5182 40.8626L29.4096 37.1596L29.3068 37.0567L28.3553 40.6997L27.8581 40.2026L28.9982 36.7481L28.8953 36.6538L27.6953 40.0483L27.2324 39.5854L28.6039 36.3624L28.5096 36.2681L27.0781 39.4311L26.6409 38.9939L28.2353 35.9938L28.141 35.9081L26.4866 38.8482L26.0666 38.4282L27.8753 35.6423L27.7896 35.5566L25.9295 38.2911L25.518 37.8796L27.541 35.2995L27.4553 35.2138L25.3809 37.7425L24.978 37.3396L27.1981 34.9652L27.1124 34.8795L24.8408 37.2024L24.438 36.7995L26.8638 34.6309L26.7781 34.5451L24.3008 36.6624L23.8979 36.2595L26.5209 34.2966L26.4352 34.2108L23.7522 36.1224L23.3408 35.7109L26.178 33.9537L26.0923 33.868L23.2036 35.5738L22.775 35.1452L25.8266 33.6022L25.7323 33.5079L22.6207 34.9995L22.1664 34.5451L25.4409 33.2251L25.3466 33.1308L22.0121 34.3909L21.5321 33.9108L25.0551 32.8393L24.9523 32.7365L21.3692 33.748L20.8463 33.2251L24.6265 32.4108L24.5151 32.2993L20.6578 33.0451L20.332 32.7193L19.852 33.1994L0.522461 36.9024C0.56532 37.1167 0.599608 37.331 0.651039 37.5453L19.5691 33.4822L19.2263 33.8251L22.7236 37.331L20.3835 39.654L19.9463 39.2168L22.6122 37.2196L22.4493 37.0567L19.732 39.0025L19.0805 38.3511L21.9607 36.5681L21.7978 36.4052L18.8662 38.1368L18.1976 37.4682L21.2921 35.8995L21.1206 35.7281L17.9662 37.2367L17.4519 36.7224H16.7747L20.5806 35.188L20.392 34.9995L1.90253 41.9598C1.97968 42.1655 2.05682 42.3798 2.13397 42.5856L16.0204 37.0053L13.6803 39.2682L2.91401 44.4199C3.0083 44.6171 3.10259 44.8228 3.19688 45.02L12.8231 40.1597V41.2312L15.7889 44.2056L15.6432 44.0599L12.4802 46.7686H9.82293L14.7089 43.117L14.3917 42.7999L8.83717 46.7686H5.61415V48.3544H13.5431L14.1003 48.123L16.9204 45.32L20.4349 48.8345L21.5578 47.7115L18.0519 44.2056L20.392 41.8827L26.8209 48.3116H27.9439L31.3983 44.8571L41.1702 35.0852L43.3989 37.3139L33.0355 47.6258L34.1585 48.7487L44.5218 38.4368L52.8451 46.7601L50.865 46.7858L50.8822 48.3716L54.7481 48.3201L55.2967 46.9658L52.0994 43.7685L57.3282 46.8972C57.4396 46.7086 57.5511 46.5115 57.6625 46.3229L50.6593 42.337L47.4706 39.1397L58.5968 44.5571C58.6911 44.3599 58.794 44.1542 58.8883 43.9485L46.6562 38.3168L45.079 36.7395L44.7018 36.3624L59.6597 42.1055C59.7369 41.8998 59.814 41.6855 59.8912 41.4712L44.1532 35.8224L42.816 34.4851L60.4998 39.5683C60.5598 39.354 60.6198 39.1397 60.6798 38.9254L42.4389 34.108L41.7274 33.3965L41.736 33.4051ZM16.9204 43.0999L14.5117 40.6912L16.8861 38.3939L19.2606 40.7683L16.9204 43.0913V43.0999ZM27.3781 46.6401L21.515 40.7769L23.8551 38.4539L29.7097 44.3085L27.3781 46.6401Z" fill="white"/>
<path d="M43.7247 42.9712L39.7988 47.0171L40.3646 48.3629H48.225L48.7993 47.0171L44.8734 42.9712H43.7333H43.7247ZM42.2418 46.7771L44.2905 44.6684L46.3392 46.7771H42.2418Z" fill="white"/>
<path d="M23.2988 31.039L30.2077 37.9565H31.3306L38.411 30.8761V30.559L61.6407 29.0075C61.6236 28.7932 61.6064 28.5703 61.5893 28.3474L38.411 30.3875V29.8904L61.3493 26.3588C61.315 26.1445 61.2807 25.9216 61.2378 25.6987L38.3852 29.7189L37.9738 29.3075L60.8264 23.7358C60.775 23.5215 60.715 23.3072 60.6635 23.0929L37.8452 29.1789L37.4766 28.8103L60.0892 21.1814C60.0206 20.9756 59.9435 20.7613 59.8749 20.5556L37.3652 28.6989L37.0223 28.356L59.1377 18.6955C59.052 18.4984 58.9577 18.2926 58.8634 18.0955L36.9109 28.2446L36.5937 27.9274L57.9634 16.304C57.8605 16.1068 57.7491 15.9182 57.6376 15.7296L36.4823 27.8246L36.1823 27.5245L56.5919 14.0324C56.4719 13.8524 56.3433 13.6638 56.2233 13.4838L36.0794 27.4217L35.788 27.1302L55.0318 11.8809C54.8947 11.7094 54.7575 11.538 54.6118 11.3666L35.6851 27.0359L35.4022 26.7531L53.3174 9.87506C53.1631 9.7122 53.0088 9.55791 52.8545 9.39504L35.3251 26.6502L35.0422 26.3673L51.4145 8.02354C51.2516 7.87782 51.0802 7.7321 50.9173 7.58638L34.9394 26.273L34.6479 25.9816L49.3658 6.33488C49.1944 6.20631 49.0144 6.06916 48.8343 5.94058L34.5536 25.8787L34.2536 25.5787L47.1714 4.83481C46.9828 4.7148 46.7942 4.60337 46.6057 4.49193L34.1593 25.493L33.8507 25.1844L44.857 3.51474C44.6598 3.41188 44.4627 3.31759 44.257 3.21472L33.7393 25.0644L33.405 24.7387L42.4312 2.40897C42.2254 2.32325 42.0111 2.2461 41.8054 2.16038L33.2936 24.6187L32.9335 24.2587L39.9196 1.50892C39.7053 1.44035 39.491 1.38034 39.2767 1.32034L32.8135 24.1472L32.4192 23.7529L37.3395 0.831745C37.1252 0.788886 36.9023 0.737455 36.688 0.694596L32.2906 23.6072L31.8535 23.17L34.7079 0.386008C34.485 0.360293 34.2707 0.334577 34.0479 0.308862L31.6906 23.0243L31.502 22.8357H31.1849L32.0678 0.16314C31.8449 0.16314 31.622 0.145996 31.4077 0.145996L31.0049 22.8272H30.3963L29.1191 0.214571C28.9133 0.231715 28.7162 0.248858 28.5105 0.266002L30.242 22.9643L29.8134 23.3929L26.6846 0.471727C26.4789 0.497443 26.2732 0.53173 26.0675 0.566018L29.6762 23.53L29.2905 23.9158L24.216 0.908892C24.0102 0.951752 23.8045 1.00318 23.5988 1.04604L29.1619 24.0444L28.8019 24.4044L21.7387 1.54321C21.533 1.60321 21.3272 1.67179 21.1215 1.73179L28.699 24.5158L28.3647 24.8501L19.2614 2.38325C19.0557 2.4604 18.85 2.54612 18.6442 2.63184L28.2362 24.9615L27.919 25.2787L16.827 3.45474C16.6299 3.54903 16.4241 3.65189 16.227 3.75475L27.8161 25.3901L27.5161 25.6987L14.4612 4.74052C14.2726 4.85195 14.0754 4.98053 13.8869 5.10053L27.4133 25.793L27.1218 26.0845L12.2068 6.25774C12.0268 6.39489 11.8382 6.53204 11.6667 6.66919L27.0275 26.1788L26.8647 26.3416L26.7361 26.4616L10.0895 7.98068C9.91808 8.13498 9.75522 8.28927 9.58378 8.44356L26.6332 26.5645L26.3418 26.8474L8.13513 9.89221C7.98084 10.0551 7.82655 10.2265 7.67225 10.3979L26.2561 26.9502L25.9646 27.2417L6.3779 11.9752C6.24075 12.1552 6.1036 12.3352 5.96645 12.5152L25.8703 27.336L25.5789 27.6274L4.81782 14.1953C4.69782 14.3839 4.57781 14.5724 4.46638 14.7696L25.476 27.7388L25.1674 28.0388L3.48061 16.5268C3.37775 16.724 3.27489 16.9211 3.1806 17.1269L25.0646 28.1417L24.7474 28.4589L2.36627 18.9441C2.28055 19.1498 2.2034 19.3555 2.12626 19.5527L24.6531 28.5617L24.3102 28.9046L1.46622 21.4299C1.39765 21.6357 1.33765 21.85 1.27764 22.0557L24.1902 29.016L23.8216 29.3846L0.780474 23.9672C0.729043 24.1815 0.686184 24.3958 0.643324 24.6101L23.6845 29.5218L23.2988 29.9161V29.9332L0.309022 26.5388C0.283306 26.7531 0.249018 26.9674 0.223303 27.1817L23.2902 30.0961V30.5761L0.0518656 29.1275C0.0347219 29.3418 0.02615 29.5646 0.0175781 29.7789L23.2988 30.739V31.039ZM36.7309 30.3104L34.2622 32.7791L28.5362 26.9245L30.9363 24.5244L36.7223 30.3104H36.7309ZM27.4133 28.0474L33.1393 33.902L30.7734 36.2678L24.9874 30.4818L27.4133 28.056V28.0474Z" fill="white"/>
<path d="M37.0215 32.2562L61.1341 36.9793C61.177 36.765 61.2199 36.5422 61.2541 36.3279L37.1415 32.1362L37.0215 32.2562Z" fill="white"/>
<path d="M61.7088 30.979L38.2476 31.039L38.0762 31.2104L61.7002 31.7162C61.7002 31.4933 61.7002 31.279 61.7002 31.0562V30.979H61.7088Z" fill="white"/>
<path d="M37.5107 31.7675L61.5291 34.3562C61.5548 34.1334 61.572 33.9105 61.5977 33.6876L37.6479 31.6304L37.5107 31.7675Z" fill="white"/>
<path d="M19.6293 34.2192L1.10547 39.4566C1.16547 39.6624 1.22547 39.8767 1.28548 40.091L19.8264 34.425L19.6293 34.2278V34.2192Z" fill="white"/>
<path d="M13.106 41.5225L4.14844 46.8027C4.25987 46.9999 4.37131 47.1885 4.49131 47.3856L13.4232 41.8482L13.0975 41.5225H13.106Z" fill="white"/>
<path d="M23.4698 31.2104L0 31.7248C0 31.9391 0.00857187 32.1619 0.0171437 32.3762L23.6155 31.3647L23.4698 31.219V31.2104Z" fill="white"/>
<path d="M24.0355 31.7764L0.154297 34.3222C0.171441 34.5365 0.197156 34.7508 0.222872 34.9737L24.1555 31.9135L24.0269 31.7849L24.0355 31.7764Z" fill="white"/>
<path d="M78.8013 26.0417L85.8131 30.0104H79.847L76.0068 27.8932L72.1238 30.1562L66.2178 30.1733L72.921 26.0331H66.5092V23.7787H74.1125V22.5786H66.5092V20.3328H85.8816L84.7673 22.5786H77.9184V23.7787H85.8559L84.8444 26.0417H78.8098H78.8013ZM66.8521 10.7752L70.418 10.7666L82.0157 10.7752L85.1016 10.7666V17.3412L81.5528 19.4156H70.4266L66.8607 19.4328V19.4156H66.8521V10.7837H66.8607L66.8521 10.7752ZM70.418 17.2984H81.5443V12.9696H70.418V14.0753H81.2871L80.2756 16.0726H70.418V17.2984Z" fill="white"/>
<path d="M107.063 10.8438V27.3103L103.694 29.9419H102.665V27.4817L103.694 27.4646L103.711 26.5046V13.1239H88.1445V10.8438H107.063ZM102.091 17.4955H88.5045V15.2325H103.085L102.082 17.4955H102.091ZM102.494 19.0385V26.7531L99.1337 29.2647H88.5045V19.0385H102.494ZM91.8733 21.37V26.9503H99.1251L99.0994 21.37H91.8647H91.8733Z" fill="white"/>
<path d="M113.963 25.0987L115.471 27.7474H129.324L128.235 30.0361H113.586L112.926 28.9303L112.566 30.0447H109.565L111.108 24.9358L109.703 22.51H111.7L112.24 20.6756H110.045V18.4726L112.103 13.0295H110.251V10.4665H115.326V12.6352L113.166 18.1983H115.206V20.7099L113.946 25.0901L113.963 25.0987ZM120.572 23.6929V22.7329H116.509V20.7099H120.572V19.5956H116.217V17.5555H120.572V16.184H116.303V14.101H120.572V13.0724H116.414V11.0323H120.572V10.3208H123.795V11.0323H128.149V14.1096H129.092L128.381 16.2182L128.149 16.2011V17.5383L125.278 19.6127H123.795V20.7528H128.569L127.635 22.75H123.795V23.7101H129.195L128.312 25.7587H123.795V26.2902L120.572 27.696V25.7587H116.329V23.7101H120.572V23.6929ZM123.795 14.101H124.901V13.0724H123.795V14.101ZM123.795 17.5555H124.901V16.184H123.795V17.5555Z" fill="white"/>
<path d="M134.116 11.435C134.15 11.3493 134.21 11.2293 134.296 11.0664C134.373 10.9035 134.561 10.7407 134.861 10.5692C135.153 10.3978 135.461 10.3035 135.779 10.2949C136.087 10.2949 136.413 10.3892 136.739 10.5778C137.064 10.7664 137.279 10.9892 137.373 11.2464L137.45 11.435H140.776L139.987 13.638H131.433V11.435H134.116ZM139.927 14.8466L139.276 17.0238H131.998V14.8466H139.927ZM139.927 18.1896L139.122 20.3669H132.007V18.1896H139.936H139.927ZM139.893 21.6441V28.0901L137.339 30.2588H131.998V21.6441H139.893ZM134.853 28.0901H136.944V23.8128H134.853V28.0901ZM145.893 23.8042L147.076 22.3898H141.085V19.9897H151.028V22.5527L148.105 26.0757L151.851 29.8988L147.651 29.9159L146.185 28.3987L144.788 30.0788H140.596L143.948 26.11L140.896 22.947H145.062L145.893 23.8042ZM150.445 19.1154H146.853V13.0808H144.839V18.0696L141.53 19.4325V10.6635H150.136V16.6981H151.499L150.445 19.1154Z" fill="white"/>
<path d="M162.788 10.7837V27.516L160.234 30.0104H158.58V27.7217H159.677V22.4757L158.768 24.3015H157.757V29.1275L154.628 30.3275V10.7837H162.78H162.788ZM157.757 16.5783H159.677V13.1581H157.757V16.5783ZM157.757 22.0471H159.677V17.0412L158.734 18.7641H157.748V22.0471H157.757ZM166.157 25.8445L163.363 22.8529H167.46L168.146 23.5815L169.277 22.3043H163.946V19.9384H173.169V22.4586L170.254 25.8187L173.975 29.6761L169.843 29.6932L168.266 28.0817L166.791 29.7618H162.677L166.157 25.8359V25.8445ZM172.757 19.0898H169.226V13.1667H167.254V18.0698L164.006 19.407V10.7837H172.466V16.7069H173.803L172.766 19.0813L172.757 19.0898Z" fill="white"/>
<path d="M177.995 10.758H181.518L180.489 14.3496V29.1618L177.172 30.6104V17.8812H175.74L177.986 10.7494L177.995 10.758ZM184.098 10.7065H187.449L184.586 17.084H181.02L184.098 10.7065ZM183.138 20.3842H181.483V17.9583H194.118V27.6617L191.178 29.9932H189.129V27.5503H190.792V20.3928H186.386L185.289 29.9504H181.963L183.121 20.3928L183.138 20.3842ZM188.409 10.7151H191.735L194.684 17.084H191.238L188.418 10.7151H188.409Z" fill="white"/>
<path d="M198.345 19.6383L196.613 19.6297L199.605 14.118H196.965V11.855H200.839L201.696 10.2949H205.537L204.662 11.855H216.457L215.317 14.118H203.385L202.494 15.6952H215.78V27.1986L212.317 29.7874H206.257V27.5415H212.317V17.9925H201.825V19.7926H211.983L210.894 22.0127H201.825V23.8813H211.845L210.628 26.1443H201.825V28.9559L198.319 30.2588L198.345 19.6383Z" fill="white"/>
<path d="M221.866 27.7817V28.9217L218.737 30.4046V10.9036H226.066V17.1868L224.369 18.6269L226.066 19.7155V25.4672L223.675 27.7902H221.866V27.7817ZM221.866 17.4954H222.903V13.218H221.866V17.4954ZM221.866 19.6984V25.4672H222.903V19.707H221.866V19.6984ZM227.061 10.8008H237.218V18.3269L234.081 20.787H230.215V27.4988H232.469L231.458 29.7875H227.061V10.8179V10.8008ZM234.09 13.038H230.224V14.8981H233.815L232.872 17.084H230.215V18.644H234.081V13.038H234.09ZM235.812 26.0844L237.381 29.8389H234.09L230.764 21.4642H233.987L234.51 22.8443L235.255 21.4642H238.118L235.821 26.0844H235.812Z" fill="white"/>
<path d="M248.627 10.7835L243.39 20.5297H239.507L244.744 10.7835H248.619H248.627ZM254.816 27.2157L253.556 22.5698H256.805L258.836 30.0016H255.588L254.91 27.5072L253.822 29.693L240.715 29.6759V27.4729L247.753 18.1981H251.85L244.71 27.2329H254.825L254.816 27.2157ZM250.299 10.7749H254.045L259.282 20.5211H255.536L250.299 10.7749Z" fill="white"/>
<path d="M280 10.9639V27.1476L276.682 29.7277H275.671V27.3104L276.682 27.2933L276.699 26.3504V13.2011H261.407V10.9639H279.991H280ZM275.114 17.4956H261.767V15.2669H276.099L275.114 17.4956ZM275.508 19.0129V26.5904L272.208 29.0591H261.767V19.0129H275.517H275.508ZM265.076 21.3015V26.7875H272.208L272.191 21.3015H265.085H265.076Z" fill="white"/>
<path d="M67.2891 38.6079H69.1577V42.251H72.3808V38.6079H74.2323V48.2598H72.3808V44.0253H69.1577V48.2598H67.2891V38.6079Z" fill="white"/>
<path d="M81.133 38.3594C82.496 38.3594 83.6703 38.8565 84.6561 39.8423C85.6418 40.8281 86.1304 42.0367 86.1304 43.4596C86.1304 44.8826 85.6504 46.0569 84.6732 47.0341C83.7046 48.0113 82.5303 48.4999 81.1416 48.4999C79.753 48.4999 78.4929 48.0027 77.5328 46.9998C76.5728 45.9969 76.0928 44.8054 76.0928 43.4339C76.0928 42.5082 76.3156 41.6595 76.7614 40.8881C77.2071 40.1166 77.8243 39.4994 78.6043 39.0451C79.3844 38.5908 80.2244 38.3679 81.1245 38.3679M81.1073 40.168C80.2158 40.168 79.4615 40.4766 78.8529 41.1024C78.2443 41.7195 77.9357 42.5082 77.9357 43.4682C77.9357 44.5311 78.3215 45.3797 79.0844 45.9969C79.6758 46.4855 80.3616 46.7255 81.133 46.7255C82.0074 46.7255 82.7445 46.4084 83.3617 45.7826C83.9703 45.1483 84.2789 44.3768 84.2789 43.4511C84.2789 42.5253 83.9703 41.7538 83.3531 41.1195C82.736 40.4852 81.9816 40.168 81.0987 40.168" fill="white"/>
<path d="M87.9307 38.6079H89.7736V44.8482C89.7736 45.3883 89.8165 45.7654 89.9108 45.9883C90.0051 46.2112 90.1593 46.3912 90.3736 46.5197C90.5879 46.6569 90.8537 46.7169 91.1537 46.7169C91.4794 46.7169 91.7537 46.6398 91.9937 46.494C92.2252 46.3483 92.388 46.1597 92.4823 45.9283C92.5766 45.6968 92.6195 45.2597 92.6195 44.6168V38.6079H94.4624V44.3596C94.4624 45.3283 94.411 46.0054 94.2996 46.3826C94.1881 46.7598 93.9824 47.1198 93.6738 47.4712C93.3652 47.8227 93.0138 48.0798 92.6109 48.2513C92.208 48.4227 91.7366 48.5084 91.2051 48.5084C90.5022 48.5084 89.8936 48.3456 89.3793 48.0284C88.865 47.7027 88.4878 47.3084 88.265 46.8198C88.0421 46.3397 87.9307 45.5168 87.9307 44.3682V38.6165V38.6079Z" fill="white"/>
<path d="M101.799 39.9195L100.436 41.1195C99.9564 40.4595 99.4764 40.1252 98.9792 40.1252C98.7392 40.1252 98.542 40.1852 98.3877 40.3223C98.2335 40.4509 98.1563 40.5966 98.1563 40.7595C98.1563 40.9224 98.2077 41.0767 98.3192 41.2224C98.4649 41.411 98.9192 41.831 99.665 42.4653C100.368 43.0482 100.788 43.4168 100.942 43.5711C101.311 43.9482 101.576 44.3082 101.731 44.6511C101.885 44.994 101.962 45.3712 101.962 45.774C101.962 46.5626 101.688 47.2227 101.139 47.737C100.591 48.2513 99.8793 48.5085 98.9963 48.5085C98.3106 48.5085 97.7106 48.337 97.1963 48.0027C96.6819 47.6684 96.2534 47.137 95.8848 46.4169L97.4277 45.4826C97.8906 46.3398 98.4306 46.7598 99.0306 46.7598C99.3478 46.7598 99.6135 46.6655 99.8278 46.4855C100.042 46.3055 100.154 46.0912 100.154 45.8512C100.154 45.6369 100.076 45.414 99.9135 45.1912C99.7507 44.9769 99.3907 44.6426 98.8421 44.1882C97.7877 43.3311 97.1105 42.671 96.802 42.1996C96.4934 41.7367 96.3391 41.2652 96.3391 40.8024C96.3391 40.1338 96.5962 39.5594 97.102 39.0794C97.6077 38.5994 98.242 38.3594 98.9878 38.3594C99.4678 38.3594 99.9307 38.4708 100.368 38.6937C100.805 38.9165 101.276 39.3194 101.782 39.9109" fill="white"/>
<path d="M103.865 38.6079H109.128V40.408H105.682V42.1481H109.128V43.9139H105.682V46.4512H109.128V48.2598H103.865V38.6079Z" fill="white"/>
<path d="M123.744 40.305L122.458 41.5307C121.583 40.605 120.598 40.1421 119.509 40.1421C118.583 40.1421 117.812 40.4593 117.177 41.085C116.543 41.7108 116.226 42.4908 116.226 43.4166C116.226 44.0594 116.363 44.6338 116.646 45.1309C116.929 45.6281 117.323 46.0224 117.829 46.3053C118.343 46.5881 118.909 46.7339 119.535 46.7339C120.066 46.7339 120.555 46.631 121.001 46.4339C121.438 46.2367 121.926 45.8767 122.458 45.3452L123.701 46.6396C122.989 47.3339 122.312 47.8139 121.678 48.0882C121.043 48.354 120.323 48.4911 119.509 48.4911C118.009 48.4911 116.783 48.0197 115.823 47.0682C114.872 46.1167 114.392 44.8995 114.392 43.408C114.392 42.4479 114.606 41.5908 115.043 40.845C115.48 40.0992 116.097 39.4992 116.912 39.0363C117.726 38.582 118.6 38.3506 119.535 38.3506C120.332 38.3506 121.095 38.522 121.832 38.8563C122.569 39.1906 123.203 39.6707 123.735 40.2878" fill="white"/>
<path d="M130.044 38.3594C131.407 38.3594 132.581 38.8565 133.567 39.8423C134.553 40.8281 135.042 42.0367 135.042 43.4596C135.042 44.8826 134.553 46.0569 133.584 47.0341C132.616 48.0113 131.441 48.4999 130.053 48.4999C128.664 48.4999 127.404 48.0027 126.444 46.9998C125.484 45.9969 125.004 44.8054 125.004 43.4339C125.004 42.5082 125.227 41.6595 125.673 40.8881C126.118 40.1166 126.735 39.4994 127.515 39.0451C128.295 38.5908 129.136 38.3679 130.036 38.3679M130.018 40.168C129.127 40.168 128.373 40.4766 127.764 41.1024C127.155 41.7195 126.855 42.5082 126.855 43.4682C126.855 44.5311 127.241 45.3797 128.004 45.9969C128.604 46.4855 129.281 46.7255 130.053 46.7255C130.927 46.7255 131.664 46.4084 132.281 45.7826C132.899 45.1483 133.199 44.3768 133.199 43.4511C133.199 42.5253 132.89 41.7538 132.273 41.1195C131.656 40.4852 130.901 40.168 130.018 40.168Z" fill="white"/>
<path d="M136.91 38.6079H138.676L142.808 44.9597V38.6079H144.642V48.2598H142.876L138.753 41.9252V48.2598H136.91V38.6079Z" fill="white"/>
<path d="M152.047 39.9195L150.684 41.1195C150.204 40.4595 149.724 40.1252 149.227 40.1252C148.987 40.1252 148.79 40.1852 148.636 40.3223C148.482 40.4509 148.404 40.5966 148.404 40.7595C148.404 40.9224 148.456 41.0767 148.567 41.2224C148.713 41.411 149.167 41.831 149.913 42.4653C150.616 43.0482 151.036 43.4168 151.19 43.5711C151.559 43.9482 151.825 44.3082 151.979 44.6511C152.133 44.994 152.21 45.3712 152.21 45.774C152.21 46.5626 151.936 47.2227 151.387 47.737C150.839 48.2513 150.127 48.5085 149.244 48.5085C148.559 48.5085 147.959 48.337 147.444 48.0027C146.93 47.6684 146.501 47.137 146.133 46.4169L147.676 45.4826C148.139 46.3398 148.679 46.7598 149.279 46.7598C149.596 46.7598 149.862 46.6655 150.076 46.4855C150.29 46.3055 150.402 46.0912 150.402 45.8512C150.402 45.6369 150.324 45.414 150.162 45.1912C149.999 44.9769 149.639 44.6426 149.09 44.1882C148.036 43.3311 147.359 42.671 147.05 42.1996C146.741 41.7367 146.587 41.2652 146.587 40.8024C146.587 40.1338 146.844 39.5594 147.35 39.0794C147.856 38.5994 148.49 38.3594 149.236 38.3594C149.716 38.3594 150.179 38.4708 150.616 38.6937C151.053 38.9165 151.525 39.3194 152.03 39.9109" fill="white"/>
<path d="M153.153 38.6079H158.485V40.4166H156.728V48.2598H154.868V40.4166H153.153V38.6079Z" fill="white"/>
<path d="M160.002 38.6079H161.948C163.011 38.6079 163.774 38.7022 164.228 38.8908C164.682 39.0794 165.042 39.3965 165.317 39.8423C165.591 40.288 165.728 40.8023 165.728 41.4109C165.728 42.0452 165.574 42.5767 165.274 43.0053C164.974 43.4339 164.511 43.751 163.902 43.9739L166.191 48.2684H164.185L162.016 44.1796H161.845V48.2684H160.011V38.6165L160.002 38.6079ZM161.836 42.3795H162.411C162.994 42.3795 163.396 42.3024 163.619 42.1481C163.842 41.9938 163.954 41.7452 163.954 41.3852C163.954 41.1709 163.902 40.9909 163.791 40.8366C163.679 40.6823 163.534 40.5709 163.354 40.5023C163.174 40.4337 162.831 40.3994 162.342 40.3994H161.836V42.3795Z" fill="white"/>
<path d="M167.743 38.6079H169.586V44.8482C169.586 45.3883 169.629 45.7654 169.723 45.9883C169.818 46.2112 169.972 46.3912 170.186 46.5197C170.4 46.6569 170.666 46.7169 170.966 46.7169C171.292 46.7169 171.566 46.6398 171.806 46.494C172.038 46.3483 172.201 46.1597 172.295 45.9283C172.381 45.6968 172.432 45.2597 172.432 44.6168V38.6079H174.275V44.3596C174.275 45.3283 174.223 46.0054 174.112 46.3826C174.001 46.7598 173.795 47.1198 173.486 47.4712C173.178 47.8227 172.826 48.0798 172.423 48.2513C172.021 48.4227 171.549 48.5084 171.018 48.5084C170.315 48.5084 169.706 48.3456 169.192 48.0284C168.677 47.7027 168.3 47.3084 168.077 46.8198C167.855 46.3397 167.743 45.5168 167.743 44.3682V38.6165V38.6079Z" fill="white"/>
<path d="M185.418 40.305L184.132 41.5307C183.258 40.605 182.272 40.1421 181.184 40.1421C180.258 40.1421 179.486 40.4593 178.852 41.085C178.218 41.7108 177.901 42.4908 177.901 43.4166C177.901 44.0594 178.038 44.6338 178.321 45.1309C178.603 45.6281 178.998 46.0224 179.504 46.3053C180.018 46.5881 180.584 46.7339 181.209 46.7339C181.741 46.7339 182.229 46.631 182.667 46.4339C183.104 46.2367 183.592 45.8767 184.124 45.3452L185.367 46.6396C184.655 47.3339 183.978 47.8139 183.344 48.0882C182.709 48.354 181.989 48.4911 181.175 48.4911C179.675 48.4911 178.449 48.0197 177.489 47.0682C176.529 46.1167 176.058 44.8995 176.058 43.408C176.058 42.4479 176.272 41.5908 176.709 40.845C177.146 40.0992 177.763 39.4992 178.578 39.0363C179.392 38.582 180.266 38.3506 181.201 38.3506C181.998 38.3506 182.761 38.522 183.498 38.8563C184.235 39.1906 184.869 39.6707 185.401 40.2878" fill="white"/>
<path d="M186.207 38.6079H191.547V40.4166H189.781V48.2598H187.921V40.4166H186.207V38.6079Z" fill="white"/>
<path d="M194.632 38.6079H192.807V48.2598H194.632V38.6079Z" fill="white"/>
<path d="M201.388 38.3594C202.751 38.3594 203.925 38.8565 204.911 39.8423C205.897 40.8281 206.385 42.0367 206.385 43.4596C206.385 44.8826 205.897 46.0569 204.928 47.0341C203.959 48.0113 202.785 48.4999 201.396 48.4999C200.008 48.4999 198.748 48.0027 197.788 46.9998C196.828 45.9969 196.348 44.8054 196.348 43.4339C196.348 42.5082 196.571 41.6595 197.016 40.8881C197.462 40.1166 198.079 39.4994 198.859 39.0451C199.639 38.5908 200.479 38.3679 201.379 38.3679M201.362 40.168C200.471 40.168 199.716 40.4766 199.108 41.1024C198.499 41.7281 198.199 42.5082 198.199 43.4682C198.199 44.5311 198.585 45.3797 199.348 45.9969C199.948 46.4855 200.625 46.7255 201.396 46.7255C202.271 46.7255 203.008 46.4084 203.625 45.7826C204.234 45.1483 204.542 44.3768 204.542 43.4511C204.542 42.5253 204.234 41.7538 203.617 41.1195C202.999 40.4852 202.245 40.168 201.362 40.168Z" fill="white"/>
<path d="M208.262 38.6079H210.019L214.151 44.9597V38.6079H215.985V48.2598H214.219L210.096 41.9252V48.2598H208.262V38.6079Z" fill="white"/>
<path d="M231.098 40.305L229.812 41.5307C228.938 40.605 227.952 40.1421 226.863 40.1421C225.938 40.1421 225.166 40.4593 224.532 41.085C223.898 41.7108 223.58 42.4908 223.58 43.4166C223.58 44.0594 223.718 44.6338 224 45.1309C224.283 45.6281 224.678 46.0224 225.183 46.3053C225.698 46.5881 226.263 46.7339 226.889 46.7339C227.421 46.7339 227.909 46.631 228.355 46.4339C228.792 46.2367 229.281 45.8767 229.812 45.3452L231.055 46.6396C230.344 47.3339 229.666 47.8139 229.032 48.0882C228.398 48.354 227.678 48.4911 226.863 48.4911C225.363 48.4911 224.138 48.0197 223.178 47.0682C222.226 46.1167 221.746 44.8995 221.746 43.408C221.746 42.4479 221.96 41.5908 222.398 40.845C222.835 40.0992 223.452 39.4992 224.266 39.0363C225.081 38.582 225.955 38.3506 226.889 38.3506C227.686 38.3506 228.449 38.522 229.186 38.8563C229.924 39.1906 230.558 39.6707 231.089 40.2878" fill="white"/>
<path d="M237.389 38.3594C238.752 38.3594 239.926 38.8565 240.912 39.8423C241.898 40.8281 242.386 42.0367 242.386 43.4596C242.386 44.8826 241.898 46.0569 240.929 47.0341C239.96 48.0113 238.786 48.4999 237.397 48.4999C236.009 48.4999 234.749 48.0027 233.789 46.9998C232.829 45.9969 232.349 44.8054 232.349 43.4339C232.349 42.5082 232.572 41.6595 233.017 40.8881C233.463 40.1166 234.08 39.4994 234.86 39.0451C235.64 38.5908 236.48 38.3679 237.38 38.3679M237.363 40.168C236.472 40.168 235.717 40.4766 235.109 41.1024C234.5 41.7195 234.2 42.5082 234.2 43.4682C234.2 44.5311 234.586 45.3797 235.349 45.9969C235.949 46.4855 236.626 46.7255 237.397 46.7255C238.272 46.7255 239.009 46.4084 239.626 45.7826C240.243 45.1483 240.543 44.3768 240.543 43.4511C240.543 42.5253 240.235 41.7538 239.618 41.1195C239 40.4852 238.246 40.168 237.363 40.168Z" fill="white"/>
<path d="M245.035 46.3911C245.318 46.3911 245.558 46.494 245.764 46.6911C245.961 46.8883 246.064 47.1283 246.064 47.4197C246.064 47.7112 245.961 47.9426 245.764 48.1483C245.558 48.3455 245.318 48.4484 245.035 48.4484C244.753 48.4484 244.504 48.3455 244.307 48.1483C244.11 47.9512 244.007 47.7026 244.007 47.4197C244.007 47.1369 244.11 46.8969 244.307 46.6911C244.513 46.494 244.753 46.3911 245.035 46.3911Z" fill="white"/>
<path d="M248.815 46.4429L250.093 47.0858L248.473 49.8545L247.581 49.4259L248.815 46.4429Z" fill="white"/>
<path d="M255.938 38.6079H257.773V46.5026H260.456V48.2598H255.938V38.6079Z" fill="white"/>
<path d="M261.03 38.6079H266.371V40.4166H264.605V48.2598H262.745V40.4166H261.03V38.6079Z" fill="white"/>
<path d="M267.768 38.6082H269.945C271.351 38.6082 272.388 38.7796 273.074 39.1311C273.751 39.4825 274.316 40.0397 274.754 40.8283C275.199 41.6083 275.414 42.5255 275.414 43.5713C275.414 44.317 275.285 44.9942 275.045 45.62C274.796 46.2457 274.462 46.76 274.025 47.1715C273.588 47.5829 273.116 47.8658 272.611 48.0201C272.105 48.1744 271.222 48.2515 269.979 48.2515H267.768V38.5996V38.6082ZM269.593 40.3826V46.4686H270.442C271.282 46.4686 271.891 46.3743 272.268 46.1771C272.645 45.98 272.954 45.6628 273.194 45.2085C273.434 44.7542 273.554 44.197 273.554 43.5284C273.554 42.5084 273.271 41.7112 272.696 41.1455C272.182 40.6397 271.351 40.3826 270.211 40.3826H269.585H269.593Z" fill="white"/>
<path d="M278.088 46.3911C278.371 46.3911 278.611 46.494 278.817 46.6911C279.014 46.8883 279.117 47.1283 279.117 47.4197C279.117 47.7112 279.014 47.9426 278.817 48.1483C278.611 48.3455 278.371 48.4484 278.088 48.4484C277.805 48.4484 277.565 48.3455 277.36 48.1483C277.162 47.9512 277.06 47.7026 277.06 47.4197C277.06 47.1369 277.162 46.8969 277.36 46.6911C277.557 46.4854 277.805 46.3911 278.088 46.3911Z" fill="white"/>
</g>
<defs>
<clipPath id="clip0_32_3027">
<rect width="280" height="49.7083" fill="white" transform="translate(0 0.145996)"/>
</clipPath>
</defs>
</svg>
