<svg width="328" height="58" viewBox="0 0 328 58" fill="none" xmlns="http://www.w3.org/2000/svg">
<g clip-path="url(#clip0_32_1306)">
<path d="M49.3652 38.7998H48.0552L47.8452 39.0098L43.4752 37.8598L43.3552 37.9798L47.6452 39.2098L47.0652 39.7898L43.0052 38.3298L42.8952 38.4398L46.8852 39.9698L46.3552 40.4998L42.5752 38.7598L42.4652 38.8698L46.1752 40.6798L45.6752 41.1798L42.1552 39.1798L42.0552 39.2798L45.5052 41.3498L45.0252 41.8298L41.7552 39.5798L41.6552 39.6698L44.8652 41.9898L44.4052 42.4498L41.3752 39.9498L41.2852 40.0398L44.2452 42.5998L43.7852 43.0598L40.9952 40.3298L40.9052 40.4198L43.6352 43.2098L43.1752 43.6698L40.6252 40.6998L40.5352 40.7898L43.0252 43.8198L42.5652 44.2798L40.2552 41.0698L40.1552 41.1698L42.4052 44.4398L41.9252 44.9198L39.8652 41.4598L39.7652 41.5598L41.7652 45.0798L41.2652 45.5798L39.4652 41.8598L39.3652 41.9598L41.0952 45.7498L40.5652 46.2798L39.0452 42.2798L38.9352 42.3898L40.3852 46.4598L39.8052 47.0398L38.5752 42.7498L38.4552 42.8698L39.6052 47.2398L38.9652 47.8798L38.0652 43.2598L37.9252 43.3998L38.7352 48.1098L38.0152 48.8298L37.4852 43.8398L37.3252 43.9998L37.7552 49.0898L36.9352 49.9098L36.8152 44.1098H36.6452V50.2098L35.6852 49.2498L36.0652 44.1098H35.9052L35.4452 49.0098L34.7552 48.3298L35.4752 43.6898L35.3452 43.5598L34.5452 48.1198L33.9252 47.4998L34.9652 43.1798L34.8452 43.0598L33.7352 47.3098L33.1552 46.7298L34.4852 42.6998L34.3652 42.5898L32.9652 46.5498L32.4252 46.0098L34.0252 42.2498L33.9152 42.1398L32.2452 45.8298L31.7352 45.3198L33.5952 41.8198L33.4852 41.7198L31.5552 45.1498L31.0652 44.6598L33.1752 41.4098L33.0752 41.3098L30.8952 44.4998L30.4152 44.0198L32.7752 41.0098L32.6752 40.9098L30.2552 43.8598L29.7852 43.3898L32.3752 40.6198L32.2752 40.5198L29.6252 43.2298L29.1552 42.7598L31.9852 40.2298L31.8852 40.1298L28.9952 42.5998L28.5252 42.1298L31.5952 39.8398L31.4952 39.7398L28.3652 41.9698L27.8852 41.4898L31.1952 39.4398L31.0952 39.3398L27.7252 41.3298L27.2252 40.8298L30.7852 39.0298L30.6752 38.9198L27.0452 40.6598L26.5152 40.1298L30.3352 38.5898L30.2252 38.4798L26.3252 39.9498L25.7652 39.3898L29.8752 38.1398L29.7552 38.0198L25.5752 39.1998L24.9552 38.5898L29.3652 37.6398L29.2352 37.5098L24.7452 38.3798L24.3652 37.9998L23.8052 38.5598L1.28516 42.8798C1.33516 43.1298 1.38516 43.3798 1.43516 43.6298L23.5052 38.8898L23.1052 39.2898L27.1952 43.3798L24.4652 46.0898L23.9552 45.5798L27.0652 43.2498L26.8752 43.0598L23.7052 45.3298L22.9452 44.5698L26.3052 42.4898L26.1152 42.2998L22.6952 44.3198L21.9052 43.5398L25.5252 41.7098L25.3252 41.5098L21.6452 43.2698L21.0452 42.6698H20.2552L24.6952 40.8798L24.4752 40.6598L2.89516 48.7798C2.98516 49.0198 3.07516 49.2698 3.16516 49.5098L19.3652 42.9998L16.6352 45.6398L4.07516 51.6498C4.18516 51.8798 4.29516 52.1198 4.40516 52.3498L15.6352 46.6798V47.9298L19.0952 51.3998L18.9252 51.2298L15.2352 54.3898H12.1352L17.8352 50.1298L17.4652 49.7598L10.9852 54.3898H7.22516V56.2398H16.4752L17.1252 55.9698L20.4152 52.6998L24.5152 56.7998L25.8252 55.4898L21.7352 51.3998L24.4652 48.6898L31.9652 56.1898H33.2752L37.3052 52.1598L48.7052 40.7598L51.3052 43.3598L39.2152 55.3898L40.5252 56.6998L52.6152 44.6698L62.3252 54.3798L60.0152 54.4098L60.0352 56.2598L64.5452 56.1998L65.1852 54.6198L61.4552 50.8898L67.5552 54.5398C67.6852 54.3198 67.8152 54.0898 67.9452 53.8698L59.7752 49.2198L56.0552 45.4898L69.0352 51.8098C69.1452 51.5798 69.2652 51.3398 69.3752 51.0998L55.1052 44.5298L53.2652 42.6898L52.8252 42.2498L70.2752 48.9498C70.3652 48.7098 70.4652 48.4598 70.5452 48.2098L52.1852 41.6198L50.6252 40.0598L71.2552 45.9898C71.3252 45.7398 71.3952 45.4898 71.4652 45.2398L50.1852 39.6198L49.3552 38.7898L49.3652 38.7998ZM20.4152 50.1098L17.6052 47.2998L20.3752 44.6198L23.1452 47.3898L20.4152 50.0998V50.1098ZM32.6152 54.2398L25.7752 47.3998L28.5052 44.6898L35.3452 51.5198L32.6252 54.2398H32.6152Z" fill="#C9A063"/>
<path d="M51.685 49.96L47.105 54.68L47.765 56.25H56.935L57.605 54.68L53.025 49.96H51.695H51.685ZM49.965 54.4L52.355 51.94L54.745 54.4H49.965Z" fill="#C9A063"/>
<path d="M27.8551 36.04L35.9151 44.11H37.2251L45.4851 35.85V35.48L72.5851 33.67C72.5651 33.42 72.5451 33.16 72.5251 32.9L45.4851 35.28V34.7L72.2451 30.58C72.2051 30.33 72.1651 30.07 72.1151 29.81L45.4551 34.5L44.9751 34.02L71.6351 27.52C71.5751 27.27 71.5051 27.02 71.4451 26.77L44.8251 33.87L44.3951 33.44L70.7751 24.54C70.6951 24.3 70.6051 24.05 70.5251 23.81L44.2651 33.31L43.8651 32.91L69.6651 21.64C69.5651 21.41 69.4551 21.17 69.3451 20.94L43.7351 32.78L43.3651 32.41L68.2951 18.85C68.1751 18.62 68.0451 18.4 67.9251 18.18L43.2451 32.29L42.8951 31.94L66.7051 16.2C66.5651 15.99 66.4151 15.77 66.2751 15.56L42.7751 31.82L42.4351 31.48L64.8851 13.69C64.7251 13.49 64.5651 13.29 64.4051 13.09L42.3251 31.37L41.9951 31.04L62.8751 11.35C62.6951 11.16 62.5151 10.98 62.3351 10.79L41.8851 30.92L41.5551 30.59L60.6551 9.19C60.4651 9.02 60.2651 8.85 60.0751 8.68L41.4351 30.48L41.0951 30.14L58.2651 7.22C58.0651 7.07 57.8551 6.91 57.6451 6.76L40.9951 30.02L40.6451 29.67L55.7051 5.47C55.4851 5.33 55.2651 5.2 55.0451 5.07L40.5251 29.57L40.1651 29.21L53.0051 3.93C52.7751 3.81 52.5451 3.7 52.3051 3.58L40.0351 29.07L39.6551 28.69L50.1751 2.64C49.9351 2.54 49.6951 2.45 49.4451 2.35L39.5151 28.55L39.0951 28.13L47.2451 1.59C46.9951 1.51 46.7451 1.44 46.4951 1.37L38.9551 28L38.4951 27.54L44.2351 0.8C43.9851 0.75 43.7251 0.69 43.4751 0.64L38.3451 27.37L37.8351 26.86L41.1651 0.28C40.9151 0.25 40.6551 0.22 40.3951 0.19L37.6451 26.69L37.4251 26.47H37.0551L38.0851 0.02C37.8251 0.02 37.5651 0 37.3151 0L36.8451 26.46H36.1351L34.6451 0.08C34.4051 0.1 34.1751 0.12 33.9351 0.14L35.9551 26.62L35.4551 27.12L31.8051 0.38C31.5651 0.41 31.3251 0.45 31.0851 0.49L35.2951 27.28L34.8451 27.73L28.9251 0.89C28.6851 0.94 28.4451 1 28.2051 1.05L34.6951 27.88L34.2751 28.3L26.0351 1.63C25.7951 1.7 25.5551 1.78 25.3151 1.85L34.1451 28.43L33.7551 28.82L23.1451 2.61C22.9051 2.7 22.6651 2.8 22.4251 2.9L33.6151 28.95L33.2451 29.32L20.3051 3.86C20.0751 3.97 19.8351 4.09 19.6051 4.21L33.1251 29.45L32.7751 29.81L17.5451 5.36C17.3251 5.49 17.0951 5.64 16.8751 5.78L32.6551 29.92L32.3151 30.26L14.9151 7.13C14.7051 7.29 14.4851 7.45 14.2851 7.61L32.2051 30.37L32.0151 30.56L31.8751 30.7L12.4451 9.14C12.2451 9.32 12.0551 9.5 11.8551 9.68L31.7451 30.82L31.4051 31.15L10.1651 11.37C9.98507 11.56 9.80507 11.76 9.62507 11.96L31.3051 31.27L30.9651 31.61L8.11507 13.8C7.95507 14.01 7.79507 14.22 7.63507 14.43L30.8551 31.72L30.5151 32.06L6.29507 16.39C6.15507 16.61 6.01507 16.83 5.88507 17.06L30.3951 32.19L30.0451 32.54L4.73507 19.11C4.61507 19.34 4.49507 19.57 4.38507 19.81L29.9151 32.66L29.5451 33.03L3.43507 21.93C3.33507 22.17 3.24507 22.41 3.15507 22.64L29.4351 33.15L29.0351 33.55L2.38507 24.83C2.30507 25.07 2.23507 25.32 2.16507 25.56L28.8951 33.68L28.4651 34.11L1.58507 27.79C1.52507 28.04 1.47507 28.29 1.42507 28.54L28.3051 34.27L27.8551 34.73V34.75L1.03507 30.79C1.00507 31.04 0.965068 31.29 0.935068 31.54L27.8451 34.94V35.5L0.735068 33.81C0.725068 34.06 0.705068 34.32 0.695068 34.57L27.8451 35.69V36.04H27.8551ZM43.5251 35.19L40.6451 38.07L33.9651 31.24L36.7651 28.44L43.5151 35.19H43.5251ZM32.6551 32.55L39.3351 39.38L36.5751 42.14L29.8251 35.39L32.6551 32.56V32.55Z" fill="#C9A063"/>
<path d="M43.865 37.4603L71.995 42.9703C72.045 42.7203 72.095 42.4603 72.135 42.2103L44.005 37.3203L43.865 37.4603Z" fill="#C9A063"/>
<path d="M72.665 35.9697L45.295 36.0397L45.095 36.2397L72.655 36.8297C72.655 36.5697 72.655 36.3197 72.655 36.0597V35.9697H72.665Z" fill="#C9A063"/>
<path d="M44.435 36.8905L72.455 39.9105C72.485 39.6505 72.505 39.3905 72.525 39.1305L44.585 36.7305L44.425 36.8905H44.435Z" fill="#C9A063"/>
<path d="M23.5751 39.75L1.96509 45.86C2.03509 46.1 2.10509 46.35 2.17509 46.6L23.8051 39.99L23.5751 39.76V39.75Z" fill="#C9A063"/>
<path d="M15.9651 48.2695L5.51514 54.4295C5.64514 54.6595 5.77514 54.8795 5.91514 55.1095L16.3351 48.6495L15.9551 48.2695H15.9651Z" fill="#C9A063"/>
<path d="M28.055 36.2402L0.675049 36.8402C0.675049 37.0902 0.685049 37.3502 0.695049 37.6002L28.225 36.4202L28.055 36.2502V36.2402Z" fill="#C9A063"/>
<path d="M28.715 36.9004L0.85498 39.8704C0.87498 40.1204 0.90498 40.3704 0.93498 40.6304L28.855 37.0604L28.705 36.9104L28.715 36.9004Z" fill="#C9A063"/>
<path d="M92.605 30.2096L100.785 34.8396H93.8251L89.345 32.3696L84.815 35.0096L77.925 35.0296L85.745 30.1996H78.265V27.5696H87.135V26.1696H78.265V23.5496H100.865L99.565 26.1696H91.5751V27.5696H100.835L99.6551 30.2096H92.6151H92.605ZM78.665 12.3996L82.8251 12.3896L96.355 12.3996L99.955 12.3896V20.0596L95.815 22.4796H82.8351L78.675 22.4996V22.4796H78.665V12.4096H78.675L78.665 12.3996ZM82.8251 20.0096H95.805V14.9596H82.8251V16.2496H95.5051L94.3251 18.5796H82.8251V20.0096Z" fill="#C9A063"/>
<path d="M125.575 12.4805V31.6905L121.645 34.7605H120.445V31.8905L121.645 31.8705L121.665 30.7505V15.1405H103.505V12.4805H125.575ZM119.775 20.2405H103.925V17.6005H120.935L119.765 20.2405H119.775ZM120.245 22.0405V31.0405L116.325 33.9705H103.925V22.0405H120.245ZM107.855 24.7605V31.2705H116.315L116.295 24.7605H107.855Z" fill="#C9A063"/>
<path d="M133.635 29.1101L135.395 32.2001H151.555L150.285 34.8701H133.195L132.425 33.5801L132.005 34.8801H128.505L130.305 28.9201L128.665 26.0901H130.995L131.625 23.9501H129.065V21.3801L131.455 15.0301H129.295V12.0401H135.215V14.5701L132.695 21.0601H135.075V23.9901L133.615 29.1001L133.635 29.1101ZM141.345 27.4701V26.3501H136.605V23.9901H141.345V22.6901H136.265V20.3101H141.345V18.7101H136.365V16.2801H141.345V15.0801H136.495V12.7001H141.345V11.8701H145.105V12.7001H150.185V16.2901H151.285L150.455 18.7501L150.185 18.7301V20.2901L146.835 22.7101H145.105V24.0401H150.675L149.585 26.3701H145.105V27.4901H151.415L150.385 29.8801H145.115V30.5001L141.355 32.1401V29.8801H136.405V27.4901H141.355L141.345 27.4701ZM145.105 16.2801H146.395V15.0801H145.105V16.2801ZM145.105 20.3101H146.395V18.7101H145.105V20.3101Z" fill="#C9A063"/>
<path d="M157.135 13.1698C157.175 13.0698 157.245 12.9298 157.335 12.7398C157.425 12.5498 157.645 12.3598 157.995 12.1598C158.335 11.9598 158.695 11.8498 159.065 11.8398C159.425 11.8398 159.805 11.9498 160.185 12.1698C160.565 12.3898 160.815 12.6498 160.925 12.9498L161.015 13.1698H164.895L163.975 15.7398H153.995V13.1698H157.125H157.135ZM163.915 17.1498L163.155 19.6898H154.665V17.1498H163.915ZM163.915 21.0498L162.975 23.5898H154.675V21.0498H163.925H163.915ZM163.875 25.0798V32.5998L160.895 35.1298H154.665V25.0798H163.875ZM157.995 32.5998H160.435V27.6098H157.995V32.5998ZM170.875 27.5998L172.255 25.9498H165.265V23.1498H176.865V26.1398L173.455 30.2498L177.825 34.7098L172.925 34.7298L171.215 32.9598L169.585 34.9198H164.695L168.605 30.2898L165.045 26.5998H169.905L170.875 27.5998ZM176.185 22.1298H171.995V15.0898H169.655V20.9098L165.795 22.4998V12.2698H175.835V19.3098H177.425L176.195 22.1298H176.185Z" fill="#C9A063"/>
<path d="M190.585 12.4102V31.9302L187.605 34.8402H185.675V32.1702H186.955V26.0502L185.895 28.1802H184.715V33.8102L181.065 35.2102V12.4102H190.575H190.585ZM184.715 19.1702H186.955V15.1802H184.715V19.1702ZM184.715 25.5502H186.955V19.7102L185.855 21.7202H184.705V25.5502H184.715ZM194.515 29.9802L191.255 26.4902H196.035L196.835 27.3402L198.155 25.8502H191.935V23.0902H202.695V26.0302L199.295 29.9502L203.635 34.4502L198.815 34.4702L196.975 32.5902L195.255 34.5502H190.455L194.515 29.9702V29.9802ZM202.215 22.1002H198.095V15.1902H195.795V20.9102L192.005 22.4702V12.4102H201.875V19.3202H203.435L202.225 22.0902L202.215 22.1002Z" fill="#C9A063"/>
<path d="M208.325 12.3803H212.435L211.245 16.5703V33.8503L207.375 35.5403V20.6903H205.705L208.325 12.3703V12.3803ZM215.445 12.3203H219.355L216.015 19.7603H211.855L215.445 12.3203ZM214.325 23.6103H212.395V20.7803H227.135V32.1003L223.705 34.8203H221.315V31.9703H223.255V23.6203H218.115L216.835 34.7703H212.955L214.305 23.6203L214.325 23.6103ZM220.475 12.3303H224.355L227.795 19.7603H223.775L220.485 12.3303H220.475Z" fill="#C9A063"/>
<path d="M232.065 22.7398L230.045 22.7298L233.535 16.2998H230.455V13.6598H234.975L235.975 11.8398H240.455L239.435 13.6598H253.195L251.865 16.2998H237.945L236.905 18.1398H252.405V31.5598L248.365 34.5798H241.295V31.9598H248.365V20.8198H236.125V22.9198H247.975L246.705 25.5098H236.125V27.6898H247.815L246.395 30.3298H236.125V33.6098L232.035 35.1298L232.065 22.7398Z" fill="#C9A063"/>
<path d="M259.505 32.2397V33.5697L255.855 35.2997V12.5497H264.405V19.8797L262.425 21.5597L264.405 22.8297V29.5397L261.615 32.2497H259.505V32.2397ZM259.505 20.2397H260.715V15.2497H259.505V20.2397ZM259.505 22.8097V29.5397H260.715V22.8197H259.505V22.8097ZM265.565 12.4297H277.415V21.2097L273.755 24.0797H269.245V31.9097H271.875L270.695 34.5797H265.565V12.4497V12.4297ZM273.765 15.0397H269.255V17.2097H273.445L272.345 19.7597H269.245V21.5797H273.755V15.0397H273.765ZM275.775 30.2597L277.605 34.6397H273.765L269.885 24.8697H273.645L274.255 26.4797L275.125 24.8697H278.465L275.785 30.2597H275.775Z" fill="#C9A063"/>
<path d="M290.725 12.4104L284.615 23.7804H280.095L286.205 12.4104H290.725ZM297.945 31.5804L296.475 26.1604H300.265L302.635 34.8304H298.845L298.055 31.9204L296.785 34.4704L281.495 34.4504V31.8804L289.705 21.0604H294.485L286.155 31.6004H297.955L297.945 31.5804ZM292.675 12.4004H297.045L303.155 23.7704H298.785L292.675 12.4004Z" fill="#C9A063"/>
<path d="M327.325 12.6201V31.5001L323.455 34.5101H322.275V31.6901L323.455 31.6701L323.475 30.5701V15.2301H305.635V12.6201H327.315H327.325ZM321.625 20.2401H306.055V17.6401H322.775L321.625 20.2401ZM322.085 22.0101V30.8501L318.235 33.7301H306.055V22.0101H322.095H322.085ZM309.915 24.6801V31.0801H318.235L318.215 24.6801H309.925H309.915Z" fill="#C9A063"/>
<path d="M79.175 44.8701H81.355V49.1201H85.1151V44.8701H87.275V56.1301H85.1151V51.1901H81.355V56.1301H79.175V44.8701Z" fill="#C9A063"/>
<path d="M95.3251 44.5801C96.9151 44.5801 98.2851 45.1601 99.4351 46.3101C100.585 47.4601 101.155 48.8701 101.155 50.5301C101.155 52.1901 100.595 53.5601 99.4551 54.7001C98.3251 55.8401 96.9551 56.4101 95.3351 56.4101C93.7151 56.4101 92.2351 55.8301 91.1251 54.6601C90.0051 53.4901 89.4451 52.1001 89.4451 50.5001C89.4451 49.4201 89.7051 48.4301 90.2251 47.5301C90.7451 46.6301 91.4651 45.9101 92.3751 45.3801C93.2851 44.8501 94.2651 44.5901 95.3151 44.5901M95.2951 46.6901C94.2551 46.6901 93.3751 47.0501 92.6651 47.7801C91.9551 48.5001 91.5951 49.4201 91.5951 50.5401C91.5951 51.7801 92.0451 52.7701 92.9351 53.4901C93.6351 54.0601 94.4251 54.3401 95.3251 54.3401C96.3451 54.3401 97.2051 53.9701 97.9251 53.2401C98.6451 52.5001 98.9951 51.6001 98.9951 50.5201C98.9951 49.4401 98.6351 48.5401 97.9151 47.8001C97.1951 47.0601 96.3151 46.6901 95.2851 46.6901" fill="#C9A063"/>
<path d="M103.255 44.8701H105.405V52.1501C105.405 52.7801 105.455 53.2201 105.565 53.4801C105.675 53.7401 105.855 53.9501 106.105 54.1001C106.355 54.2601 106.665 54.3301 107.015 54.3301C107.395 54.3301 107.715 54.2401 107.995 54.0701C108.265 53.9001 108.455 53.6801 108.565 53.4101C108.665 53.1401 108.725 52.6301 108.725 51.8801V44.8701H110.875V51.5801C110.875 52.7101 110.815 53.5001 110.685 53.9401C110.555 54.3801 110.315 54.8001 109.955 55.2101C109.595 55.6201 109.185 55.9201 108.715 56.1201C108.245 56.3201 107.695 56.4201 107.075 56.4201C106.255 56.4201 105.545 56.2301 104.945 55.8601C104.345 55.4801 103.905 55.0201 103.645 54.4501C103.385 53.8901 103.255 52.9301 103.255 51.5901V44.8801V44.8701Z" fill="#C9A063"/>
<path d="M119.435 46.4001L117.845 47.8001C117.285 47.0301 116.725 46.6401 116.145 46.6401C115.865 46.6401 115.635 46.7101 115.455 46.8701C115.275 47.0201 115.185 47.1901 115.185 47.3801C115.185 47.5701 115.245 47.7501 115.375 47.9201C115.545 48.1401 116.075 48.6301 116.945 49.3701C117.765 50.0501 118.255 50.4801 118.435 50.6601C118.865 51.1001 119.175 51.5201 119.355 51.9201C119.535 52.3201 119.625 52.7601 119.625 53.2301C119.625 54.1501 119.305 54.9201 118.665 55.5201C118.025 56.1201 117.195 56.4201 116.165 56.4201C115.365 56.4201 114.665 56.2201 114.065 55.8301C113.465 55.4401 112.965 54.8201 112.535 53.9801L114.335 52.8901C114.875 53.8901 115.505 54.3801 116.205 54.3801C116.575 54.3801 116.885 54.2701 117.135 54.0601C117.385 53.8501 117.515 53.6001 117.515 53.3201C117.515 53.0701 117.425 52.8101 117.235 52.5501C117.045 52.3001 116.625 51.9101 115.985 51.3801C114.755 50.3801 113.965 49.6101 113.605 49.0601C113.245 48.5201 113.065 47.9701 113.065 47.4301C113.065 46.6501 113.365 45.9801 113.955 45.4201C114.545 44.8601 115.285 44.5801 116.155 44.5801C116.715 44.5801 117.255 44.7101 117.765 44.9701C118.275 45.2301 118.825 45.7001 119.415 46.3901" fill="#C9A063"/>
<path d="M121.845 44.8701H127.985V46.9701H123.965V49.0001H127.985V51.0601H123.965V54.0201H127.985V56.1301H121.845V44.8701Z" fill="#C9A063"/>
<path d="M145.035 46.8503L143.535 48.2803C142.515 47.2003 141.365 46.6603 140.095 46.6603C139.015 46.6603 138.115 47.0303 137.375 47.7603C136.635 48.4903 136.265 49.4003 136.265 50.4803C136.265 51.2303 136.425 51.9003 136.755 52.4803C137.085 53.0603 137.545 53.5203 138.135 53.8503C138.735 54.1803 139.395 54.3503 140.125 54.3503C140.745 54.3503 141.315 54.2303 141.825 54.0003C142.335 53.7703 142.905 53.3503 143.525 52.7303L144.975 54.2403C144.145 55.0503 143.355 55.6103 142.615 55.9303C141.875 56.2403 141.035 56.4003 140.085 56.4003C138.335 56.4003 136.905 55.8503 135.785 54.7403C134.665 53.6303 134.115 52.2103 134.115 50.4703C134.115 49.3503 134.365 48.3503 134.875 47.4803C135.385 46.6103 136.105 45.9103 137.055 45.3703C138.005 44.8403 139.025 44.5703 140.115 44.5703C141.045 44.5703 141.935 44.7703 142.795 45.1603C143.655 45.5503 144.395 46.1103 145.015 46.8303" fill="#C9A063"/>
<path d="M152.385 44.5801C153.975 44.5801 155.345 45.1601 156.495 46.3101C157.645 47.4601 158.215 48.8701 158.215 50.5301C158.215 52.1901 157.645 53.5601 156.515 54.7001C155.385 55.8401 154.015 56.4101 152.395 56.4101C150.775 56.4101 149.305 55.8301 148.185 54.6601C147.065 53.4901 146.505 52.1001 146.505 50.5001C146.505 49.4201 146.765 48.4301 147.285 47.5301C147.805 46.6301 148.525 45.9101 149.435 45.3801C150.345 44.8501 151.325 44.5901 152.375 44.5901M152.355 46.6901C151.315 46.6901 150.435 47.0501 149.725 47.7801C149.015 48.5101 148.665 49.4201 148.665 50.5401C148.665 51.7801 149.115 52.7701 150.005 53.4901C150.705 54.0601 151.495 54.3401 152.395 54.3401C153.415 54.3401 154.275 53.9701 154.995 53.2401C155.705 52.5001 156.065 51.6001 156.065 50.5201C156.065 49.4401 155.705 48.5401 154.985 47.8001C154.265 47.0601 153.385 46.6901 152.355 46.6901Z" fill="#C9A063"/>
<path d="M160.395 44.8701H162.455L167.275 52.2801V44.8701H169.415V56.1301H167.355L162.545 48.7401V56.1301H160.395V44.8701Z" fill="#C9A063"/>
<path d="M178.055 46.4001L176.465 47.8001C175.905 47.0301 175.345 46.6401 174.765 46.6401C174.485 46.6401 174.255 46.7101 174.075 46.8701C173.895 47.0201 173.805 47.1901 173.805 47.3801C173.805 47.5701 173.865 47.7501 173.995 47.9201C174.165 48.1401 174.695 48.6301 175.565 49.3701C176.385 50.0501 176.875 50.4801 177.055 50.6601C177.485 51.1001 177.795 51.5201 177.975 51.9201C178.155 52.3201 178.245 52.7601 178.245 53.2301C178.245 54.1501 177.925 54.9201 177.285 55.5201C176.645 56.1201 175.815 56.4201 174.785 56.4201C173.985 56.4201 173.285 56.2201 172.685 55.8301C172.085 55.4401 171.585 54.8201 171.155 53.9801L172.955 52.8901C173.495 53.8901 174.125 54.3801 174.825 54.3801C175.195 54.3801 175.505 54.2701 175.755 54.0601C176.005 53.8501 176.135 53.6001 176.135 53.3201C176.135 53.0701 176.045 52.8101 175.855 52.5501C175.665 52.3001 175.245 51.9101 174.605 51.3801C173.375 50.3801 172.585 49.6101 172.225 49.0601C171.865 48.5201 171.685 47.9701 171.685 47.4301C171.685 46.6501 171.985 45.9801 172.575 45.4201C173.165 44.8601 173.905 44.5801 174.775 44.5801C175.335 44.5801 175.875 44.7101 176.385 44.9701C176.895 45.2301 177.445 45.7001 178.035 46.3901" fill="#C9A063"/>
<path d="M179.345 44.8701H185.565V46.9801H183.515V56.1301H181.345V46.9801H179.345V44.8701Z" fill="#C9A063"/>
<path d="M187.335 44.8701H189.605C190.845 44.8701 191.735 44.9801 192.265 45.2001C192.795 45.4201 193.215 45.7901 193.535 46.3101C193.855 46.8301 194.015 47.4301 194.015 48.1401C194.015 48.8801 193.835 49.5001 193.485 50.0001C193.135 50.5001 192.595 50.8701 191.885 51.1301L194.555 56.1401H192.215L189.685 51.3701H189.485V56.1401H187.345V44.8801L187.335 44.8701ZM189.475 49.2701H190.145C190.825 49.2701 191.295 49.1801 191.555 49.0001C191.815 48.8201 191.945 48.5301 191.945 48.1101C191.945 47.8601 191.885 47.6501 191.755 47.4701C191.625 47.2901 191.455 47.1601 191.245 47.0801C191.035 47.0001 190.635 46.9601 190.065 46.9601H189.475V49.2701Z" fill="#C9A063"/>
<path d="M196.365 44.8701H198.515V52.1501C198.515 52.7801 198.565 53.2201 198.675 53.4801C198.785 53.7401 198.965 53.9501 199.215 54.1001C199.465 54.2601 199.775 54.3301 200.125 54.3301C200.505 54.3301 200.825 54.2401 201.105 54.0701C201.375 53.9001 201.565 53.6801 201.675 53.4101C201.775 53.1401 201.835 52.6301 201.835 51.8801V44.8701H203.985V51.5801C203.985 52.7101 203.925 53.5001 203.795 53.9401C203.665 54.3801 203.425 54.8001 203.065 55.2101C202.705 55.6201 202.295 55.9201 201.825 56.1201C201.355 56.3201 200.805 56.4201 200.185 56.4201C199.365 56.4201 198.655 56.2301 198.055 55.8601C197.455 55.4801 197.015 55.0201 196.755 54.4501C196.495 53.8901 196.365 52.9301 196.365 51.5901V44.8801V44.8701Z" fill="#C9A063"/>
<path d="M216.985 46.8503L215.485 48.2803C214.465 47.2003 213.315 46.6603 212.045 46.6603C210.965 46.6603 210.065 47.0303 209.325 47.7603C208.585 48.4903 208.215 49.4003 208.215 50.4803C208.215 51.2303 208.375 51.9003 208.705 52.4803C209.035 53.0603 209.495 53.5203 210.085 53.8503C210.685 54.1803 211.345 54.3503 212.075 54.3503C212.695 54.3503 213.265 54.2303 213.775 54.0003C214.285 53.7703 214.855 53.3503 215.475 52.7303L216.925 54.2403C216.095 55.0503 215.305 55.6103 214.565 55.9303C213.825 56.2403 212.985 56.4003 212.035 56.4003C210.285 56.4003 208.855 55.8503 207.735 54.7403C206.615 53.6303 206.065 52.2103 206.065 50.4703C206.065 49.3503 206.315 48.3503 206.825 47.4803C207.335 46.6103 208.055 45.9103 209.005 45.3703C209.955 44.8403 210.975 44.5703 212.065 44.5703C212.995 44.5703 213.885 44.7703 214.745 45.1603C215.605 45.5503 216.345 46.1103 216.965 46.8303" fill="#C9A063"/>
<path d="M217.905 44.8701H224.135V46.9801H222.075V56.1301H219.905V46.9801H217.905V44.8701Z" fill="#C9A063"/>
<path d="M227.735 44.8701H225.605V56.1301H227.735V44.8701Z" fill="#C9A063"/>
<path d="M235.615 44.5801C237.205 44.5801 238.575 45.1601 239.725 46.3101C240.875 47.4601 241.445 48.8701 241.445 50.5301C241.445 52.1901 240.875 53.5601 239.745 54.7001C238.615 55.8401 237.245 56.4101 235.625 56.4101C234.005 56.4101 232.525 55.8301 231.415 54.6601C230.295 53.4901 229.735 52.1001 229.735 50.5001C229.735 49.4201 229.995 48.4301 230.515 47.5301C231.035 46.6301 231.755 45.9101 232.665 45.3801C233.575 44.8501 234.555 44.5901 235.615 44.5901M235.595 46.6901C234.555 46.6901 233.675 47.0501 232.965 47.7801C232.255 48.5101 231.895 49.4201 231.895 50.5401C231.895 51.7801 232.345 52.7701 233.235 53.4901C233.935 54.0601 234.725 54.3401 235.625 54.3401C236.645 54.3401 237.505 53.9701 238.225 53.2401C238.945 52.5001 239.295 51.6001 239.295 50.5201C239.295 49.4401 238.935 48.5401 238.215 47.8001C237.495 47.0601 236.615 46.6901 235.585 46.6901" fill="#C9A063"/>
<path d="M243.635 44.8701H245.685L250.505 52.2801V44.8701H252.645V56.1301H250.585L245.775 48.7401V56.1301H243.635V44.8701Z" fill="#C9A063"/>
<path d="M270.275 46.8503L268.775 48.2803C267.755 47.2003 266.605 46.6603 265.335 46.6603C264.255 46.6603 263.355 47.0303 262.615 47.7603C261.875 48.4903 261.505 49.4003 261.505 50.4803C261.505 51.2303 261.665 51.9003 261.995 52.4803C262.325 53.0603 262.785 53.5203 263.375 53.8503C263.975 54.1803 264.635 54.3503 265.365 54.3503C265.985 54.3503 266.555 54.2303 267.065 54.0003C267.575 53.7703 268.145 53.3503 268.765 52.7303L270.215 54.2403C269.385 55.0503 268.595 55.6103 267.855 55.9303C267.115 56.2403 266.275 56.4003 265.325 56.4003C263.575 56.4003 262.145 55.8503 261.025 54.7403C259.905 53.6303 259.355 52.2103 259.355 50.4703C259.355 49.3503 259.605 48.3503 260.115 47.4803C260.625 46.6103 261.345 45.9103 262.295 45.3703C263.245 44.8403 264.265 44.5703 265.355 44.5703C266.285 44.5703 267.175 44.7703 268.035 45.1603C268.895 45.5503 269.635 46.1103 270.255 46.8303" fill="#C9A063"/>
<path d="M277.615 44.5801C279.205 44.5801 280.575 45.1601 281.725 46.3101C282.875 47.4601 283.445 48.8701 283.445 50.5301C283.445 52.1901 282.875 53.5601 281.745 54.7001C280.615 55.8401 279.245 56.4101 277.625 56.4101C276.005 56.4101 274.535 55.8301 273.415 54.6601C272.295 53.4901 271.735 52.1001 271.735 50.5001C271.735 49.4201 271.995 48.4301 272.515 47.5301C273.035 46.6301 273.755 45.9101 274.665 45.3801C275.575 44.8501 276.555 44.5901 277.605 44.5901M277.585 46.6901C276.545 46.6901 275.665 47.0501 274.955 47.7801C274.245 48.5101 273.895 49.4201 273.895 50.5401C273.895 51.7801 274.345 52.7701 275.235 53.4901C275.935 54.0601 276.725 54.3401 277.625 54.3401C278.645 54.3401 279.505 53.9701 280.225 53.2401C280.935 52.5001 281.295 51.6001 281.295 50.5201C281.295 49.4401 280.935 48.5401 280.215 47.8001C279.495 47.0601 278.615 46.6901 277.585 46.6901Z" fill="#C9A063"/>
<path d="M286.535 53.9502C286.865 53.9502 287.145 54.0702 287.385 54.3002C287.615 54.5302 287.735 54.8102 287.735 55.1502C287.735 55.4902 287.615 55.7602 287.385 56.0002C287.145 56.2302 286.865 56.3502 286.535 56.3502C286.205 56.3502 285.925 56.2302 285.685 56.0002C285.455 55.7702 285.335 55.4802 285.335 55.1502C285.335 54.8202 285.455 54.5402 285.685 54.3002C285.915 54.0602 286.205 53.9502 286.535 53.9502Z" fill="#C9A063"/>
<path d="M290.945 54.0098L292.435 54.7598L290.545 57.9898L289.505 57.4898L290.945 54.0098Z" fill="#C9A063"/>
<path d="M299.255 44.8701H301.395V54.0801H304.525V56.1301H299.255V44.8701Z" fill="#C9A063"/>
<path d="M305.195 44.8701H311.425V46.9801H309.375V56.1301H307.195V46.9801H305.195V44.8701Z" fill="#C9A063"/>
<path d="M313.055 44.8703H315.595C317.235 44.8703 318.445 45.0704 319.245 45.4804C320.035 45.8904 320.695 46.5403 321.205 47.4604C321.715 48.3704 321.975 49.4404 321.975 50.6604C321.975 51.5304 321.835 52.3204 321.545 53.0504C321.255 53.7803 320.865 54.3804 320.355 54.8604C319.845 55.3404 319.295 55.6703 318.705 55.8503C318.115 56.0303 317.085 56.1203 315.635 56.1203H313.055V44.8604V44.8703ZM315.185 46.9403V54.0404H316.175C317.155 54.0404 317.865 53.9304 318.305 53.7004C318.745 53.4704 319.105 53.1004 319.385 52.5704C319.665 52.0404 319.805 51.3904 319.805 50.6104C319.805 49.4204 319.475 48.4904 318.805 47.8304C318.205 47.2404 317.235 46.9403 315.905 46.9403H315.175H315.185Z" fill="#C9A063"/>
<path d="M325.095 53.9502C325.425 53.9502 325.705 54.0702 325.945 54.3002C326.175 54.5302 326.295 54.8102 326.295 55.1502C326.295 55.4902 326.175 55.7602 325.945 56.0002C325.705 56.2302 325.425 56.3502 325.095 56.3502C324.765 56.3502 324.485 56.2302 324.245 56.0002C324.015 55.7702 323.895 55.4802 323.895 55.1502C323.895 54.8202 324.015 54.5402 324.245 54.3002C324.475 54.0602 324.765 53.9502 325.095 53.9502Z" fill="#C9A063"/>
</g>
<defs>
<clipPath id="clip0_32_1306">
<rect width="326.65" height="57.99" fill="white" transform="translate(0.675049)"/>
</clipPath>
</defs>
</svg>
