<svg width="360" height="460" viewBox="0 0 360 460" fill="none" xmlns="http://www.w3.org/2000/svg">
<g clip-path="url(#clip0_58_162)">
<path d="M242.513 191.196H236.064L235.021 192.241L213.518 186.552L212.915 187.156L234.023 193.24L231.17 196.096L211.175 188.897L210.619 189.455L230.265 197.001L227.644 199.625L209.041 191.057L208.531 191.568L226.809 200.484L224.35 202.946L207.046 193.077L206.559 193.565L223.562 203.758L221.219 206.127L205.144 195.028L204.68 195.492L220.454 206.893L218.18 209.169L203.289 196.862L202.825 197.326L217.415 209.935L215.165 212.187L201.456 198.696L200.992 199.161L214.423 212.93L212.173 215.183L199.624 200.531L199.16 200.995L211.407 215.949L209.134 218.225L197.768 202.388L197.304 202.853L208.369 218.991L206.026 221.336L195.889 204.269L195.402 204.757L205.237 222.126L202.778 224.587L193.917 206.243L193.407 206.754L201.943 225.423L199.322 228.047L191.807 208.356L191.25 208.913L198.394 228.976L195.541 231.832L189.51 210.655L188.907 211.259L194.544 232.807L191.412 235.942L186.982 213.163L186.309 213.836L190.299 237.056L186.773 240.586L184.175 215.995L183.41 216.762L185.521 241.863L181.461 245.926L180.881 217.342H180.046L180 247.389L175.291 242.676L177.17 217.342H176.381L174.108 241.491L170.745 238.124L174.294 215.252L173.644 214.602L169.701 237.08L166.639 234.014L171.742 212.698L171.139 212.094L165.665 233.039L162.835 230.206L169.376 210.33L168.82 209.772L161.93 229.301L159.286 226.654L167.173 208.147L166.639 207.613L158.428 225.818L155.923 223.287L165.108 206.057L164.598 205.546L155.111 222.474L152.698 220.059L163.09 204.037L162.603 203.549L151.91 219.27L149.567 216.901L161.165 202.087L160.678 201.599L148.778 216.112L146.459 213.79L159.216 200.136L158.729 199.648L145.67 213L143.374 210.701L157.314 198.209L156.827 197.721L142.608 209.912L140.289 207.567L155.389 196.258L154.902 195.771L139.5 206.777L137.134 204.409L153.441 194.308L152.93 193.797L136.322 203.596L133.863 201.134L151.399 192.264L150.889 191.753L133.052 200.322L130.454 197.721L149.289 190.151L148.732 189.594L129.572 196.816L126.812 194.052L147.039 187.876L146.436 187.272L125.861 193.1L122.845 190.082L144.58 185.414L143.93 184.764L121.802 189.037L119.946 187.179L117.209 189.919L5.82216 211.305C6.05412 212.536 6.28608 213.766 6.54123 214.974L115.191 191.614L113.242 193.565L133.353 213.697L119.923 227.072L117.418 224.564L132.75 213.093L131.822 212.164L116.188 223.333L112.454 219.595L128.992 209.331L128.041 208.379L111.201 218.341L107.351 214.486L125.142 205.477L124.144 204.478L106.028 213.163L103.106 210.237H99.2319L121.082 201.413L120.015 200.345L13.732 240.423C14.1727 241.607 14.6134 242.815 15.0773 244.022L94.8479 211.932L81.4175 224.935L19.5773 254.564C20.1108 255.725 20.6675 256.886 21.2242 258.024L76.4768 230.067L76.4304 236.22L93.5258 253.334L92.6907 252.521L74.5051 268.102H59.2423L87.2861 247.111L85.4536 245.276L53.5361 268.102H35.0258V277.251H80.5825L83.8067 275.927L99.9974 259.812L120.178 280.014L126.626 273.559L106.469 253.38L119.899 240.005L156.827 276.972H163.276L183.131 257.095L239.265 200.902L252.07 213.72L192.549 273.001L198.997 279.48L258.518 220.198L306.302 268.032L294.959 268.172L295.075 277.32L317.25 277.042L320.428 269.24L302.033 250.826L332.072 268.822C332.722 267.73 333.371 266.616 333.997 265.501L293.799 242.583L275.451 224.215L339.332 255.354C339.889 254.216 340.446 253.032 340.979 251.871L270.742 219.502L261.696 210.446L259.515 208.263L345.433 241.282C345.897 240.098 346.338 238.867 346.778 237.66L256.407 205.175L248.729 197.489L350.281 226.723C350.629 225.516 350.977 224.262 351.302 223.031L246.549 195.329L242.443 191.219L242.513 191.196ZM99.9974 246.902L86.1727 233.062L99.7887 219.873L113.428 233.527L99.9974 246.902ZM160.052 267.266L126.371 233.55L139.802 220.175L173.459 253.868L160.075 267.266H160.052Z" fill="#C9A063"/>
<path d="M253.902 246.205L231.332 269.472L234.603 277.227H279.719L282.99 269.472L260.42 246.205H253.856H253.902ZM245.412 268.102L257.173 255.958L268.933 268.102H245.389H245.412Z" fill="#C9A063"/>
<path d="M136.577 177.589L176.289 217.342H182.737L223.4 176.637V174.779L356.799 165.886C356.706 164.632 356.613 163.355 356.521 162.101L223.4 173.851V170.994L355.152 150.723C354.967 149.469 354.758 148.192 354.526 146.938L223.284 170.066L220.918 167.697L352.183 135.676C351.882 134.446 351.557 133.192 351.232 131.961L220.175 166.954L218.041 164.818L347.915 120.955C347.521 119.747 347.08 118.54 346.662 117.332L217.369 164.144L215.42 162.194L342.418 106.674C341.907 105.513 341.397 104.352 340.863 103.214L214.794 161.59L212.961 159.756L335.714 92.9509C335.111 91.8364 334.485 90.7218 333.858 89.6304L212.358 159.152L210.619 157.411L327.851 79.8547C327.155 78.8098 326.436 77.7416 325.717 76.7199L210.039 156.853L208.345 155.158L318.874 67.4782C318.085 66.4798 317.296 65.4813 316.485 64.5293L207.789 154.601L206.142 152.952L308.923 55.9377C308.064 55.0089 307.16 54.0801 306.278 53.1745L205.585 152.395L203.938 150.746L298.021 45.2796C297.07 44.4437 296.119 43.5845 295.144 42.7718L203.381 150.212L201.711 148.54L286.307 35.5967C285.286 34.8305 284.266 34.0642 283.222 33.3212L201.224 147.983L199.508 146.265L273.711 26.9356C272.621 26.2622 271.531 25.5888 270.441 24.9386L198.951 145.684L197.165 143.896L260.42 19.389C259.284 18.8085 258.124 18.2279 256.987 17.6939L196.562 143.316L194.66 141.412L246.479 13.0034C245.296 12.5158 244.09 12.0513 242.907 11.5869L194.01 140.738L191.969 138.695L232.052 7.84847C230.822 7.47694 229.593 7.10542 228.363 6.75711L191.25 137.975L189 135.723L217.229 3.97067C216 3.69203 214.724 3.43661 213.495 3.2044L188.235 134.933L185.706 132.425L202.152 1.39322C200.9 1.23068 199.624 1.09135 198.371 0.952033L184.802 131.52L183.711 130.429H181.879L186.982 0.116102C185.729 0.069661 184.43 0.0232203 183.178 0L180.858 130.429H177.356L170.049 0.417966C168.889 0.510847 167.706 0.603728 166.57 0.69661L176.497 131.195L174.039 133.656L156.039 1.90407C154.856 2.06661 153.673 2.25237 152.49 2.43813L173.204 134.469L170.954 136.698L141.866 4.41186C140.683 4.66728 139.477 4.94593 138.294 5.20135L170.258 137.395L168.193 139.461L127.624 8.03423C126.441 8.38253 125.235 8.75406 124.052 9.12558L167.544 140.135L165.619 142.062L113.405 12.8873C112.222 13.3517 111.039 13.8161 109.879 14.3037L164.992 142.712L163.16 144.546L99.4407 18.9942C98.3041 19.5515 97.1443 20.132 96.0077 20.7125L162.58 145.081L160.84 146.845L85.8712 26.4247C84.7578 27.0981 83.6675 27.7947 82.5773 28.4681L160.26 147.426L158.567 149.121L72.9047 35.1323C71.8608 35.8986 70.7938 36.7113 69.7732 37.5008L158.01 149.701L157.059 150.653L156.34 151.35L60.7268 45.0474C59.7526 45.9066 58.7784 46.8122 57.8505 47.6945L155.784 151.907L154.113 153.533L49.5232 56.0306C48.6418 56.9827 47.7371 57.9579 46.8789 58.9564L153.58 154.113L151.91 155.762L39.4098 68.0123C38.6211 69.034 37.8325 70.1021 37.067 71.1471L151.376 156.342L149.683 158.037L30.4794 80.7603C29.7835 81.8516 29.1108 82.943 28.4382 84.0576L149.103 158.595L147.363 160.336L22.8016 94.1584C22.2217 95.2962 21.6418 96.434 21.0851 97.595L146.784 160.94L144.951 162.774L16.3531 108.091C15.866 109.252 15.4021 110.436 14.9613 111.62L144.302 163.401L142.353 165.352L11.2036 122.371C10.8325 123.555 10.4613 124.786 10.1134 125.993L141.704 166.025L139.593 168.138L7.28351 136.953C7.00516 138.161 6.75001 139.415 6.49485 140.645L138.827 168.881L136.577 171.134V171.25L4.56959 151.745C4.40722 152.975 4.24485 154.206 4.08248 155.437L136.577 172.179V174.942L3.08506 166.629C3.01547 167.86 2.94588 169.137 2.89949 170.367L136.577 175.894V177.612V177.589ZM213.727 173.386L199.554 187.574L166.686 153.904L180.487 140.088L213.727 173.363V173.386ZM160.168 160.383L193.036 194.052L179.467 207.636L146.227 174.361L160.168 160.406V160.383Z" fill="#C9A063"/>
<path d="M215.42 184.625L353.899 211.792C354.131 210.538 354.363 209.285 354.595 208.031L216.093 183.951L215.42 184.625Z" fill="#C9A063"/>
<path d="M357.193 177.241L222.472 177.566L221.474 178.564L357.147 181.467C357.17 180.213 357.193 178.936 357.193 177.658V177.217V177.241Z" fill="#C9A063"/>
<path d="M218.25 181.815L356.196 196.699C356.335 195.445 356.451 194.145 356.567 192.868L219.039 181.025L218.273 181.792L218.25 181.815Z" fill="#C9A063"/>
<path d="M115.562 195.91L9.16237 226.003C9.48711 227.211 9.83505 228.441 10.183 229.626L116.698 197.047L115.562 195.91Z" fill="#C9A063"/>
<path d="M78.0773 237.892L26.6521 268.264C27.3015 269.379 27.951 270.493 28.6237 271.608L79.9562 239.773L78.0773 237.892Z" fill="#C9A063"/>
<path d="M137.598 178.611L2.8067 181.56C2.8299 182.791 2.87629 184.044 2.92268 185.298L138.456 179.47L137.598 178.611Z" fill="#C9A063"/>
<path d="M140.822 181.861L3.71133 196.467C3.82731 197.698 3.96649 198.951 4.12886 200.182L141.588 182.604L140.845 181.861H140.822Z" fill="#C9A063"/>
<path d="M52.9098 368.042L82.3685 384.737H57.2706L41.1263 375.821L24.7964 385.364L-0.0231934 385.457L28.1366 368.042L1.18299 368.088V358.545H33.1701V353.483H1.20619V344.032H82.6469L77.9613 353.483H49.1521V358.545H82.5077L78.2629 368.088L52.9098 368.042ZM2.69072 303.861V303.814H17.6521V303.861H66.4098V303.814H79.3763V331.47L64.4381 340.201H17.6521V340.247L2.66753 340.294V340.201H2.62114V303.838H2.66753L2.69072 303.861ZM17.6753 331.307L64.4613 331.261V313.079H17.6521V317.747H63.3711L59.1263 326.152H17.6521V331.307H17.6753Z" fill="#C9A063"/>
<path d="M171.719 304.116V373.406L157.546 384.459H153.209V374.126L157.546 374.033L157.639 369.992V313.683H92.2036V304.093H171.719V304.116ZM150.843 332.097H93.7345V322.553H155.041L150.843 332.097ZM152.536 338.575L152.582 371.037L138.41 381.603L93.7345 381.556V338.575H152.536ZM107.907 348.374V371.873L138.41 371.92L138.317 348.374H107.907Z" fill="#C9A063"/>
<path d="M200.737 364.118L207.093 375.263L265.314 375.31L260.745 384.877L199.16 384.923L196.376 380.233L194.845 384.923H182.227L188.722 363.421L182.807 353.204H191.204L193.477 345.495L184.268 345.449V336.23L192.897 313.312H185.126V302.514L206.467 302.561V311.64L197.397 335.046H205.979V345.611L200.714 364.048L200.737 364.118ZM228.503 358.196V354.156H211.43V345.658H228.503V340.967H210.201V332.375H228.503V326.594H210.572V317.816H228.503V313.474H211.013V304.883H228.503V301.887H242.049V304.883H260.351V317.816H264.34L261.348 326.687L260.374 326.594V332.236L248.312 340.967H242.095V345.75H262.183L258.24 354.156H242.095V358.196H264.804L261.093 366.834H242.095V369.064L228.549 374.985V366.834H210.711V358.196H228.549H228.503ZM242.049 317.816H246.711V313.474H242.049V317.816ZM242.049 332.375H246.711V326.594H242.049V332.375Z" fill="#C9A063"/>
<path d="M285.448 306.578C285.588 306.23 285.843 305.696 286.191 305.022C286.539 304.349 287.327 303.652 288.557 302.909C289.786 302.189 291.085 301.795 292.43 301.771C293.729 301.771 295.098 302.166 296.466 302.956C297.858 303.745 298.74 304.674 299.134 305.742L299.436 306.555H313.423L310.106 315.82H274.152V306.555H285.425L285.448 306.578ZM309.874 320.951L307.137 330.123H276.541V320.951H309.851H309.874ZM309.874 335L306.464 344.172H276.541V335H309.851H309.874ZM309.735 349.536V376.657L298.995 385.783H276.541V349.512H309.711L309.735 349.536ZM288.534 376.657H297.348V358.661H288.534V376.657ZM334.948 358.615L339.912 352.67H314.745V342.546H356.567V353.321L344.273 368.135L360.023 384.204L342.348 384.296L336.178 377.888L330.309 384.97H312.68L326.76 368.274L313.933 354.969H331.469L334.948 358.592V358.615ZM354.085 338.878H338.961V313.498H330.518V334.489L316.601 340.224V303.327H352.786V328.707H358.515L354.085 338.878Z" fill="#C9A063"/>
<path d="M23.7062 402.872V450.915L16.3763 458.09H11.6443V451.519H14.799V436.449L12.201 441.697H9.30154V455.559L0.324738 459.019V402.872H23.7062ZM9.27834 419.498H14.799V409.676H9.27834V419.498ZM9.27834 435.195H14.799V420.822L12.1082 425.768H9.30154V435.195H9.27834ZM33.4021 446.085L25.3995 437.494H37.1598L39.1314 439.607L42.3789 435.938H27.0928V429.158H53.5361V436.402L45.1624 446.039L55.8325 457.115L43.9794 457.185L39.4562 452.564L35.2345 457.394H23.4278L33.4021 446.109V446.085ZM52.3299 426.696H42.1933V409.676H36.5335V423.747L27.2088 427.579V402.849H51.4716V419.87H55.299L52.3299 426.673V426.696Z" fill="#C9A063"/>
<path d="M67.3144 402.779H77.4278L74.4819 413.113V455.652L64.9716 459.832V423.26H60.866L67.3144 402.779ZM84.8273 402.64H94.4536L86.2423 420.961H76.0129L84.8273 402.64ZM82.067 430.435H77.335V423.469H113.59V451.333L105.17 458.021H99.3015V450.985H104.08V430.412H91.4613L88.3067 457.858H78.7732L82.1134 430.412L82.067 430.435ZM97.1907 402.663H106.724L115.191 420.938H105.286L97.1907 402.663Z" fill="#C9A063"/>
<path d="M125.698 428.299L120.735 428.276L129.317 412.462H121.755V405.938H132.843L135.302 401.456H146.343L143.814 405.938H177.657L174.387 412.462H140.173L137.621 416.99H175.732V450.01L165.781 457.463H148.407V451.008H165.781V423.562H135.696V428.763H164.83L161.698 435.126H135.696V440.489H164.436L160.956 446.991H135.696V455.072L125.606 458.81L125.698 428.299Z" fill="#C9A063"/>
<path d="M193.198 451.705V454.979L184.222 459.228V403.198H205.237V421.24L200.389 425.373L205.237 428.484V444.994L198.371 451.658H193.175L193.198 451.705ZM193.198 422.169H196.168V409.885H193.198V422.169ZM193.198 428.508V445.087H196.168V428.554H193.198V428.508ZM208.113 402.965H237.271V424.583L228.271 431.642H217.183V450.915H223.655L220.755 457.487H208.137V402.965H208.113ZM228.271 409.397H217.183V414.738H227.505L224.814 421.008H217.206V425.489H228.294V409.397H228.271ZM233.211 446.875L237.711 457.649H228.271L218.737 433.593H227.969L229.477 437.564L231.611 433.593H239.822L233.235 446.852L233.211 446.875Z" fill="#C9A063"/>
<path d="M269.977 402.872L254.946 430.853H243.812L258.843 402.872H269.977ZM287.722 450.079L284.103 436.751H293.428L299.25 458.09H289.925L287.977 450.915L284.845 457.185L247.245 457.115V450.776L267.425 424.142H279.186L258.704 450.079H287.745H287.722ZM274.755 402.849H285.495L300.526 430.83H289.786L274.755 402.849Z" fill="#C9A063"/>
<path d="M360 403.384V449.871L350.49 457.278H347.59V450.335L350.49 450.265L350.536 447.572V409.792H306.65V403.36H359.977L360 403.384ZM345.99 422.146H307.693V415.76H348.82L345.99 422.146ZM347.126 426.488V448.245L337.639 455.327H307.67V426.465H347.103L347.126 426.488ZM317.204 433.059V448.826H337.662L337.616 433.059H317.227H317.204Z" fill="#C9A063"/>
</g>
<defs>
<clipPath id="clip0_58_162">
<rect width="360" height="459.832" fill="white"/>
</clipPath>
</defs>
</svg>
